<?xml version="1.0" encoding="UTF-8"?>
<svg version="1.1" viewBox="0 0 2048 1119" width="300" height="164" xmlns="http://www.w3.org/2000/svg">
<path transform="translate(1088,131)" d="m0 0h38l34 3 24 4 26 6 33 11 20 9 14 8 18 12 19 14 14 12 10 9 12 11 7 8 13 15 14 19 11 17 9 16 8 15 11 26 9 27 6 24 4 22 3 27 1 19-2 3-8 1h-148l-2-3-4-24-5-19-5-15-8-18-10-19-12-17-10-11-12-12-16-12-16-9-12-6-15-6-22-6-35-5-12-1-4 19-16 75-17 80-18 84-18 85-20 94-4 16v7l8 3 25 5 20 2h29l23-3 15-4 20-7 16-8 16-9 11-8 10-8 16-15 7-8 12-15 10-15 12-21 8-15 4-8h156l-1 8-10 35-10 29-12 27-11 21-12 20-14 20-11 14-13 15-23 23-11 9-14 11-15 10-20 12-27 14-28 12-19 7-21 6-34 7-31 4-12 1h-30l-29-3-24-4-25-6-30-10-20-9-16-8-16-9-16-11-16-13-11-9-23-23-9-11-11-14-14-20-14-24-8-15-11-25-11-30-7-25-7-33-5-33-1-12v-44l3-28 7-33 7-28 9-29 11-29 8-18 12-25 14-24 8-12 11-16 11-14 11-13 11-12 16-16 8-7 15-12 18-13 19-12 18-10 16-8 18-8 25-9 28-8 34-7 23-3z" fill="#ED3E43"/>
<path transform="translate(1513,182)" d="m0 0h517l15 1-2 10-21 100-7 30-4 4h-258l-3 1-23 108-7 31-1 2h265l-1 9-12 57-16 75-2 3-263 1-4 15-12 58-12 57-3 13h265l-4 20-16 74-10 47-2 2h-534l1-7 8-37 19-91 18-83 11-50 10-50 18-85 11-50 10-49 22-104 20-94 4-16z" fill="#ED3E43"/>
<path transform="translate(601,2)" d="m0 0 2 2 4 25 13 69 16 86 15 82 11 59 20 108 24 130 14 77 9 49 7 35 12 66 18 97 2 9v4l-249 1h-40l-4-1-5-24-25-136-19-103-34-184-16-86-4-20v-5l8-10 16-25 7-10 118-177 29-43 28-42 11-17 8-12z" fill="#ED3E43"/>
<path transform="translate(306,442)" d="m0 0h2l4 21 11 59 13 68 16 85 24 128 15 79 3 14-1 4-393 1 2-4 13-18 28-42 7-11 10-15 29-43 29-44 29-43 29-44 27-40 82-123 15-23z" fill="#ED3E43"/>
<path transform="translate(891,987)" d="m0 0h21l12 3 10 5 10 9 5 9 4 12v25l-5 13-8 11-10 7-11 4-6 1h-21l-13-4-11-7-2-2v46h-29v-127l1-1h24l3 4 1 5 13-9zm-1 18-11 4-8 9-5 12v14l4 9 6 8 6 5 11 3 9-1 10-5 5-5 4-5 3-10v-12l-4-12-8-9-8-4-5-1z" fill="#ED3E43"/>
<path transform="translate(1376,987)" d="m0 0h18l15 4 11 7 7 7 6 11 3 9 1 7v9l-2 11-5 12-8 10-8 6-9 4-10 2h-21l-10-3-12-7-5-4 1 5v42h-28l-1-126 1-2h24l3 3v6l14-9 9-3zm-3 18-11 4-5 4-6 9-3 10v11l5 12 7 8 11 5 10 1 10-4 8-6 6-10 1-5v-15l-4-10-7-8-8-5-4-1z" fill="#080303"/>
<path transform="translate(514,950)" d="m0 0 27 1 1 1v38l-1 12 16-11 12-4h19l13 4 11 8 7 9 3 10v64l-2 1h-22l-5-1-1-57-3-8-4-6-8-4h-12l-10 4-7 6-5 10-1 55-27 1-2-1v-131z" fill="#ED3E43"/>
<path transform="translate(171,951)" d="m0 0h27l1 1v49l-1 2 15-11 10-4 4-1h19l13 4 9 6 7 8 4 9 1 6v62l-15 1h-11l-3-1-1-57-4-10-4-5-7-3h-12l-9 3-7 6-4 6-2 6-1 9-1 45-2 1-26-1z" fill="#080303"/>
<path transform="translate(1547,987)" d="m0 0h26l14 3 12 6 7 7 6 12 1 5 1 60-2 3h-22l-2-2-1-8-8 4-8 5-16 4h-26l-12-3-9-6-6-7-3-8v-11l4-9 7-8 12-6 13-3 10-1h40l-4-11-7-6-5-2h-18l-6 3-7 6-6 2-14 1h-10l-1-1 1-7 7-9 9-6 12-5zm5 54-12 2-8 4-4 5 1 7 4 6 5 4 6 2h10l10-3 10-6 8-8 3-6v-5l-4-2z" fill="#0A0303"/>
<path transform="translate(1803,987)" d="m0 0h25l16 4 10 5 10 9 7 12 4 15v10l-3 1-36 1h-50l2 9 6 8 8 5 6 2h18l10-5 5-4 3-1 25-1 3 1-1 6-7 9-9 6-9 4-14 3-11 1h-11l-16-2-12-4-9-6-8-8-6-12-3-11v-15l4-13 5-9 6-7 11-7 10-4zm5 17-14 7-8 9-1 5 3 1h57l-1-6-6-8-8-6-6-2z" fill="#0B0404"/>
<path transform="translate(345,987)" d="m0 0h26l16 4 11 6 8 7 8 14 3 12 1 12-1 1-30 1h-58l1 6 5 9 7 6 8 3h19l12-6 4-4 18-1h11l1 3-3 6-8 9-10 6-9 3-11 2-19 1-18-2-13-4-8-6-8-8-7-14-2-9v-15l3-12 7-12 9-8 14-7zm6 17-10 4-10 9-4 8 2 1h58l2-2-7-10-5-5-4-3-6-2z" fill="#0B0404"/>
<path transform="translate(688,987)" d="m0 0h25l16 4 11 6 10 10 7 14 2 8v13l-1 1-29 1h-58l1 6 5 9 7 6 8 3h19l12-6 4-4 28-1 1 1-1 7-10 11-14 7-16 3h-29l-15-3-8-4-10-9-6-8-4-9-2-10v-13l3-12 5-10 7-8 11-7 10-4zm5 17-9 4-6 4-7 8-2 5 1 1h58l2-1-2-6-7-9-6-4-7-2z" fill="#ED3E43"/>
<path transform="translate(24,951)" d="m0 0h132v20l-1 1-29 1h-21v109l-2 1-28-1v-110l-33 1h-15l-3-2z" fill="#080303"/>
<path transform="translate(1061,991)" d="m0 0h27l2 5v49l3 12 5 6 13 4 9-1 10-5 7-8 3-8 1-53 1-1h27l1 1v90l-1 1h-24l-1-1-1-11-6 3-7 6-8 4-10 2h-17l-12-3-8-5-8-8-4-8-2-7z" fill="#ED3E43"/>
<path transform="translate(1678,987)" d="m0 0h25l16 4 10 6 7 7 5 9 3 10-3 1-25 1-3-3-6-11-7-5-3-1h-11l-10 4-5 5-5 9-2 10v11l3 10 6 9 10 5 9 1 9-2 8-6 6-11h26l3 1-1 7-6 11-8 8-12 6-14 3-16 1-17-2-12-4-9-7-8-9-5-10-2-8v-21l5-14 8-11 8-6 10-5z" fill="#0A0304"/>
<path transform="translate(1018,949)" d="m0 0h20l12 1v14l-1 3-21 1-8 3-4 10-1 10h29v11l-1 6-27 1-1 1v72l-6 1h-19l-4-1-1-5v-69l-21 1-2-1v-17h23l1-14 2-9 4-8 7-6 11-4z" fill="#ED3E43"/>
<path transform="translate(1194,951)" d="m0 0h29v131h-28l-1-1-1-7v-122z" fill="#ED3E43"/>
<path transform="translate(1450,951)" d="m0 0h28l1 1v128l-2 3h-24l-3-1z" fill="#0A0304"/>
<path transform="translate(781,950)" d="m0 0 28 1v131l-3 1h-22l-3-1-1-3v-125z" fill="#ED3E43"/>
<path transform="translate(1947,827)" d="m0 0h21l10 4 9 7 6 9 3 9v14l-3 10-4 6-7 8-11 6-8 2h-15l-8-3-8-6-7-8-4-8-2-13 2-10 4-10 9-10 7-5zm4 6-9 4-8 7-4 9-1 4v13l3 9 6 8 9 6 3 1h15l8-4 7-7 6-10 1-5v-9l-3-10-7-8-8-6-5-2z" fill="#150607"/>
<path transform="translate(1952,841)" d="m0 0h11l7 4 4 5v11l-6 7 1 5 3 5 1 6-2 1-6-4-6-7-4-7-3-1-1 17-4 1-3-5-2-14v-12l4-8zm2 5-3 5 1 9 4 2h8l2-3-1-7-5-5zm-2 16 1 2z" fill="#190708"/>
<path transform="translate(1893,1057)" d="m0 0h27v25l-2 1h-17l-7-1-1-1z" fill="#0A0304"/>
</svg>
