<?xml version="1.0" encoding="utf-8"?>
<!-- Generator: Adobe Illustrator 27.5.0, SVG Export Plug-In . SVG Version: 6.00 Build 0)  -->
<svg version="1.1" xmlns="http://www.w3.org/2000/svg" xmlns:xlink="http://www.w3.org/1999/xlink" x="0px" y="0px"
	 viewBox="0 0 500 500" style="enable-background:new 0 0 500 500;" xml:space="preserve">
<g id="Left_Side">
	<g>
		<path style="fill:#9ABAE3;" d="M236.865,129.713c0,0,7.902-3.065,5.144-14.649c0,0,8.503-9.853,2.197-22.664
			c0,0,1.568-20.141-17.513-17.192c0,0-5.748-6.344-18.024-3.6c-12.276,2.744-17.877,11.62-17.877,11.62s-13.331-2.004-24.432,5.259
			s-11.898,17.968-11.898,17.968s-12.614,2.391-18.775,10.448c-6.161,8.057-6.755,14.501-6.755,14.501s-10.809,4.273-10.292,18.347
			c0,0-17.158,4.718-13.428,30.617c0,0-11.204,6.685-14.664,17.911c-3.459,11.225,3.575,16.673,3.575,16.673
			s-10.272,11.777-2.64,27.381c0,0-10.014,4.865-8.084,17.47c0,0-11.451,13.02-9.161,36.123
			c2.29,23.102,12.059,30.105,12.059,30.105s-9.443,27.471,5.233,36.881c0,0-1.867,17.829,18.615,19.635
			c0,0,3.136,15.627,19.474,17.117c0,0,9.157,31.083,54.017,24.631c0,0,19.397,9.369,36.042,1.882
			c14.428-6.489,17.1-18.653,17.1-18.653s16.566-15.105,2.677-34.758c0,0,7.47-15.639-0.341-39.316c0,0,8.126-7.902,8.331-25.765
			c0.145-12.651-5.988-20.758-5.988-20.758s6.063-14.515-0.06-25.016c0,0,15.103-25.222-4.096-49.307c0,0,9.678-12.154,9.38-27.991
			c-0.33-17.529-5.82-25.192-5.82-25.192S251.631,140.392,236.865,129.713z"/>
		<path style="fill:#FFFFFF;" d="M241.373,80.394c-2.329-0.967-5.323-1.331-9.191-0.738c0,0-5.635-6.228-17.686-3.535
			c-12.05,2.693-17.54,11.406-17.54,11.406s-13.09-1.965-23.976,5.167c-10.896,7.122-11.687,17.634-11.687,17.634
			s-12.373,2.339-18.424,10.252c-6.041,7.902-6.623,14.223-6.623,14.223s-10.605,4.201-10.106,18.008
			c0,0-16.833,4.627-13.173,30.048c0,0-11,6.561-14.39,17.582c-3.4,11.011,3.504,16.355,3.504,16.355s-10.075,11.562-2.589,26.877
			c0,0-9.825,4.772-7.933,17.145c0,0-11.24,12.778-8.994,35.444c2.256,22.677,11.843,29.549,11.843,29.549
			s-9.275,26.96,5.136,36.193c0,0-1.84,17.499,18.268,19.266c0,0,3.078,15.336,19.11,16.802c0,0,8.983,30.506,53.005,24.174
			c0,0,15.575,7.517,30.63,3.514c-0.291,0.145-0.582,0.281-0.884,0.416c-16.636,7.486-36.037-1.882-36.037-1.882
			c-44.864,6.457-54.014-24.631-54.014-24.631c-16.344-1.487-19.474-17.114-19.474-17.114
			c-20.483-1.809-18.622-19.641-18.622-19.641c-14.671-9.41-5.23-36.879-5.23-36.879s-9.773-6.997-12.061-30.1
			c-2.287-23.103,9.16-36.131,9.16-36.131c-1.924-12.601,8.089-17.467,8.089-17.467c-7.632-15.606,2.641-27.376,2.641-27.376
			s-7.039-5.448-3.577-16.677c3.462-11.229,14.66-17.915,14.66-17.915c-3.733-25.9,13.433-30.61,13.433-30.61
			c-0.52-14.078,10.293-18.351,10.293-18.351s0.593-6.446,6.748-14.504c6.166-8.048,18.778-10.439,18.778-10.439
			s0.801-10.709,11.895-17.977c11.104-7.257,24.434-5.251,24.434-5.251s5.604-8.879,17.883-11.624
			c12.269-2.745,18.019,3.598,18.019,3.598C234.625,73.978,238.982,76.744,241.373,80.394z"/>
		<path style="fill:#9ABAE3;" d="M236.634,76.213c-0.864,0.034-1.791,0.129-2.762,0.276c0,0-0.62-0.678-1.883-1.495
			C233.786,75.156,235.327,75.583,236.634,76.213z"/>
		<path style="fill:#9ABAE3;" d="M231.99,74.994c-1.557-0.146-3.316-0.089-5.298,0.213c0,0-1.556-1.717-4.764-2.969
			C226.785,72.245,230.102,73.77,231.99,74.994z"/>
		<path style="fill:none;stroke:#263238;stroke-width:2.5;stroke-linecap:round;stroke-linejoin:round;stroke-miterlimit:10;" d="
			M236.865,129.713c0,0,7.902-3.065,5.144-14.649c0,0,8.503-9.853,2.197-22.664c0,0,1.568-20.141-17.513-17.192
			c0,0-5.748-6.344-18.024-3.6c-12.276,2.744-17.877,11.62-17.877,11.62s-13.331-2.004-24.432,5.259s-11.898,17.968-11.898,17.968
			s-12.614,2.391-18.775,10.448c-6.161,8.057-6.755,14.501-6.755,14.501s-10.809,4.273-10.292,18.347
			c0,0-17.158,4.718-13.428,30.617c0,0-11.204,6.685-14.664,17.911c-3.459,11.225,3.575,16.673,3.575,16.673
			s-10.272,11.777-2.64,27.381c0,0-10.014,4.865-8.084,17.47c0,0-11.451,13.02-9.161,36.123
			c2.29,23.102,12.059,30.105,12.059,30.105s-9.443,27.471,5.233,36.881c0,0-1.867,17.829,18.615,19.635
			c0,0,3.136,15.627,19.474,17.117c0,0,9.157,31.083,54.017,24.631c0,0,19.397,9.369,36.042,1.882
			c14.428-6.489,17.1-18.653,17.1-18.653s16.566-15.105,2.677-34.758c0,0,7.47-15.639-0.341-39.316c0,0,8.126-7.902,8.331-25.765
			c0.145-12.651-5.988-20.758-5.988-20.758s6.063-14.515-0.06-25.016c0,0,15.103-25.222-4.096-49.307c0,0,9.678-12.154,9.38-27.991
			c-0.33-17.529-5.82-25.192-5.82-25.192S251.631,140.392,236.865,129.713z"/>
		<g>
			<path style="fill:none;stroke:#263238;stroke-width:2.5;stroke-linecap:round;stroke-linejoin:round;stroke-miterlimit:10;" d="
				M83.399,259.803c9.572-5.797,17.999-0.781,19.71,5.709"/>
			<path style="fill:none;stroke:#263238;stroke-width:2.5;stroke-linecap:round;stroke-linejoin:round;stroke-miterlimit:10;" d="
				M105.212,180.368c15.173-9.082,29.134-9.658,45.911,4.06"/>
			<path style="fill:none;stroke:#263238;stroke-width:2.5;stroke-linecap:round;stroke-linejoin:round;stroke-miterlimit:10;" d="
				M127.424,159.776c0,0,4.464,7.116-2.133,14.004"/>
			<path style="fill:none;stroke:#263238;stroke-width:2.5;stroke-linecap:round;stroke-linejoin:round;stroke-miterlimit:10;" d="
				M213.136,298.195c0,0,4.464,7.116-2.133,14.004"/>
			<path style="fill:none;stroke:#263238;stroke-width:2.5;stroke-linecap:round;stroke-linejoin:round;stroke-miterlimit:10;" d="
				M118.64,149.751c19.512-5.678,27.668,11.061,27.668,11.061s15.564-5.673,28.529,2.894c12.965,8.568,11.734,23.528,11.734,23.528"
				/>
			<path style="fill:none;stroke:#263238;stroke-width:2.5;stroke-linecap:round;stroke-linejoin:round;stroke-miterlimit:10;" d="
				M117.297,293.011c0,0,22.941-16.818,12.032-46.784"/>
			<path style="fill:none;stroke:#263238;stroke-width:2.5;stroke-linecap:round;stroke-linejoin:round;stroke-miterlimit:10;" d="
				M181.963,127.196c0,0-4.557-22.9-27.936-20.859"/>
			<path style="fill:none;stroke:#263238;stroke-width:2.5;stroke-linecap:round;stroke-linejoin:round;stroke-miterlimit:10;" d="
				M129.62,399.664c-3.829-26.708,13.306-41.5,33.138-41.702"/>
			<path style="fill:none;stroke:#263238;stroke-width:2.5;stroke-linecap:round;stroke-linejoin:round;stroke-miterlimit:10;" d="
				M241.459,286.928c-9.537,15.25-31.663,14.199-42.275,2.775"/>
			<path style="fill:none;stroke:#263238;stroke-width:2.5;stroke-linecap:round;stroke-linejoin:round;stroke-miterlimit:10;" d="
				M157.368,381.258c0,0,13.674,32.345,50.891,17.328"/>
			<path style="fill:none;stroke:#263238;stroke-width:2.5;stroke-linecap:round;stroke-linejoin:round;stroke-miterlimit:10;" d="
				M183.637,424.296c-14.883-10.567-9.442-25.363-9.442-25.363"/>
			<path style="fill:none;stroke:#263238;stroke-width:2.5;stroke-linecap:round;stroke-linejoin:round;stroke-miterlimit:10;" d="
				M239.115,333.451c-16.695,15.794-50.033,12.3-56.895-16.891c0,0-23.257,1.864-22.29-22.669"/>
			<path style="fill:none;stroke:#263238;stroke-width:2.5;stroke-linecap:round;stroke-linejoin:round;stroke-miterlimit:10;" d="
				M190.792,83.228c16.76,3.401,32.912,16.703,24.07,42.976"/>
			<path style="fill:none;stroke:#263238;stroke-width:2.5;stroke-linecap:round;stroke-linejoin:round;stroke-miterlimit:10;" d="
				M230.873,96.101c0,0-9.906-9.495-19.21-0.978"/>
			<path style="fill:none;stroke:#263238;stroke-width:2.5;stroke-linecap:round;stroke-linejoin:round;stroke-miterlimit:10;" d="
				M240.863,159.421c-6.757-10.514-22.657-14.992-37.949-5.106"/>
			<path style="fill:none;stroke:#263238;stroke-width:2.5;stroke-linecap:round;stroke-linejoin:round;stroke-miterlimit:10;" d="
				M237.303,212.605c-12.485-13.053-29.065-13.972-38.884-1.84c-11.464,14.165-1.848,28.089-1.848,28.089"/>
			<path style="fill:none;stroke:#263238;stroke-width:2.5;stroke-linecap:round;stroke-linejoin:round;stroke-miterlimit:10;" d="
				M179.145,264.22c-0.125-16.276,16.135-34.615,41.61-22.792"/>
			<path style="fill:none;stroke:#263238;stroke-width:2.5;stroke-linecap:round;stroke-linejoin:round;stroke-miterlimit:10;" d="
				M95.404,292.559c-3.469,11.686,6.718,43.136,39.53,39.549"/>
			<path style="fill:none;stroke:#263238;stroke-width:2.5;stroke-linecap:round;stroke-linejoin:round;stroke-miterlimit:10;" d="
				M94.039,332.301c3.719,8.146,17.752,10.857,23.479-1.936"/>
			<path style="fill:none;stroke:#263238;stroke-width:2.5;stroke-linecap:round;stroke-linejoin:round;stroke-miterlimit:10;" d="
				M114.886,353.942c0,0,1.749,16.03,21.28,16.304"/>
			<path style="fill:none;stroke:#263238;stroke-width:2.5;stroke-linecap:round;stroke-linejoin:round;stroke-miterlimit:10;" d="
				M124.153,196.561c6.139,21.48,35.775,26.668,49.308,11.441"/>
			<path style="fill:none;stroke:#263238;stroke-width:2.5;stroke-linecap:round;stroke-linejoin:round;stroke-miterlimit:10;" d="
				M206.903,341.856c0,0-18.222,11.188-9.497,33.962"/>
			<path style="fill:none;stroke:#263238;stroke-width:2.5;stroke-linecap:round;stroke-linejoin:round;stroke-miterlimit:10;" d="
				M239.456,372.767c-10.579-12.438-25-6.28-25-6.28"/>
			<path style="fill:none;stroke:#263238;stroke-width:2.5;stroke-linecap:round;stroke-linejoin:round;stroke-miterlimit:10;" d="
				M167.597,136.059c0,0,15.259-16.097,33.308-0.476"/>
			<path style="fill:none;stroke:#263238;stroke-width:2.5;stroke-linecap:round;stroke-linejoin:round;stroke-miterlimit:10;" d="
				M154.037,255.523c0,0-2.935,18.035-22.467,15.758"/>
		</g>
	</g>
</g>
<g id="Puzzle">
	<g>
		<g>
			
				<path style="fill:#9ABAE3;stroke:#263238;stroke-width:2.5;stroke-linecap:round;stroke-linejoin:round;stroke-miterlimit:10;" d="
				M73.006,78.658c0.76-4.773-2.47-9.226-7.243-9.986c-2.677-0.426-5.281,0.432-7.136,2.087c-0.976,0.879-2.232,1.276-3.513,1.072
				c-2.29-0.365-3.862-2.485-3.497-4.774l3.435-21.575l59.138,9.417l-3.435,21.575c-0.365,2.289-2.479,3.823-4.768,3.458
				c-1.28-0.204-2.352-0.971-3.006-2.11c-1.288-2.155-3.496-3.78-6.174-4.206c-4.734-0.754-9.226,2.47-9.986,7.243
				c-0.754,4.734,2.509,9.232,7.243,9.986c2.677,0.426,5.281-0.432,7.181-2.119c0.969-0.84,2.232-1.276,3.513-1.072
				c2.289,0.365,3.817,2.518,3.458,4.768l-3.442,21.614L83.199,110.6c-2.289-0.365-4.404,1.169-4.768,3.458
				c-0.204,1.281,0.193,2.537,1.072,3.513c1.648,1.894,2.513,4.458,2.08,7.175c-0.754,4.734-5.213,8.003-9.986,7.243
				c-4.734-0.754-7.997-5.252-7.243-9.986c0.433-2.717,2.051-4.886,4.245-6.168c1.1-0.66,1.906-1.726,2.11-3.006
				c0.365-2.289-1.208-4.41-3.458-4.768l-21.614-3.442l3.442-21.614c0.358-2.25,2.518-3.816,4.807-3.452
				c1.28,0.204,2.346,1.01,3.006,2.11c1.243,2.187,3.451,3.812,6.129,4.239C67.793,86.661,72.252,83.392,73.006,78.658z"/>
		</g>
		<g>
			<path style="fill:#EC644E;" d="M132.553,157.044c0.469,4.809-3.065,9.06-7.836,9.525c-2.738,0.267-5.25-0.753-7.038-2.508
				c-0.917-0.939-2.148-1.412-3.439-1.286c-2.31,0.226-3.967,2.241-3.742,4.551l2.121,21.742l-59.599,5.815l-2.126-21.784
				c-0.221-2.268-2.241-3.967-4.551-3.742c-1.291,0.126-2.404,0.865-3.126,1.926c-1.411,2.11-3.679,3.597-6.411,3.863
				c-4.776,0.466-9.069-3.064-9.534-7.835c-0.469-4.809,3.064-9.064,7.84-9.53c2.733-0.267,5.245,0.754,7.034,2.514
				c0.916,0.935,2.147,1.407,3.439,1.281c2.31-0.226,3.967-2.241,3.742-4.546l-2.122-21.746l21.784-2.126
				c2.263-0.221,4.321,1.432,4.546,3.742c0.126,1.291-0.384,2.526-1.281,3.439c-1.802,1.792-2.809,4.342-2.546,7.037
				c0.466,4.776,4.755,8.306,9.526,7.84c4.813-0.47,8.301-4.759,7.835-9.535c-0.263-2.695-1.749-5.001-3.826-6.415
				c-1.094-0.718-1.796-1.835-1.922-3.126c-0.225-2.31,1.432-4.326,3.742-4.551l21.742-2.122l2.126,21.784
				c0.221,2.268,2.241,3.967,4.551,3.742c1.291-0.126,2.404-0.865,3.126-1.926c1.411-2.11,3.678-3.597,6.416-3.864
				C127.794,148.738,132.087,152.268,132.553,157.044z"/>
		</g>
		<g>
			
				<path style="fill:#FFFFFF;stroke:#EC644E;stroke-width:2.5;stroke-linecap:round;stroke-linejoin:round;stroke-miterlimit:10;" d="
				M198.024,109.131l-19.977,3.663c-2.075,0.383-4.107-0.986-4.494-3.106c-0.216-1.184,0.159-2.364,0.915-3.275
				c1.527-1.8,2.261-4.236,1.805-6.707c-0.804-4.379-5.042-7.309-9.417-6.506c-4.411,0.809-7.304,5.045-6.501,9.424
				c0.451,2.472,2.006,4.49,4.038,5.636c1.068,0.578,1.801,1.556,2.021,2.739c0.387,2.12-0.99,4.111-3.106,4.498l-19.937,3.656
				L139.71,99.18c-0.38-2.08-2.383-3.496-4.498-3.106c-1.188,0.217-2.16,0.985-2.742,2.026c-1.141,2.06-3.119,3.611-5.631,4.07
				c-4.375,0.803-8.618-2.126-9.421-6.505c-0.809-4.407,2.127-8.614,6.502-9.416c2.511-0.463,4.913,0.285,6.701,1.769
				c0.923,0.799,2.097,1.138,3.281,0.922c2.119-0.391,3.492-2.382,3.105-4.502l-3.655-19.933l54.652-10.022l8.787,48.136l0.04-0.007
				L198.024,109.131z"/>
		</g>
	</g>
</g>
<g id="Gears">
	<g>
		
			<path style="fill:#FFFFFF;stroke:#EC644E;stroke-width:2.5;stroke-linecap:round;stroke-linejoin:round;stroke-miterlimit:10;" d="
			M110.149,400.972c1.464,1.102,3.034,2.11,4.688,2.996c1.667,0.894,3.363,1.643,5.089,2.242l0.361,11.624l25.362-0.788
			l-0.359-11.671l0,0c3.397-1.413,6.575-3.368,9.406-5.803l10.259,5.502l11.997-22.369l-10.258-5.501
			c0.46-3.705,0.332-7.437-0.369-11.048l9.918-6.156l-13.375-21.563l-9.932,6.152c-1.433-1.125-2.997-2.119-4.644-3.003
			c-1.648-0.882-3.337-1.636-5.089-2.213l-0.352-11.67l-25.363,0.788l0.369,11.651c-3.398,1.416-6.578,3.384-9.417,5.822h0
			l-10.258-5.501l-11.997,22.37l10.263,5.504c0,0,0,0,0,0c-0.468,3.71-0.344,7.447,0.354,11.064h0l-9.908,6.138l13.375,21.563
			L110.149,400.972z M110.56,374.731c-0.467-22.971,27.263-31.341,39.584-11.948c1.527,2.404,2.369,5.205,2.419,8.053
			c0.405,22.952-27.201,31.284-39.562,11.941C111.467,380.377,110.618,377.579,110.56,374.731z"/>
		<path style="fill:#EC644E;" d="M150.208,464.538c0.933,0.703,1.934,1.345,2.988,1.909c1.062,0.57,2.144,1.047,3.244,1.429
			l0.23,7.409l16.166-0.502l-0.229-7.439l0,0c2.165-0.9,4.191-2.147,5.996-3.699l6.54,3.507l7.647-14.259l-6.539-3.507
			c0.293-2.362,0.211-4.741-0.235-7.042l6.322-3.924l-8.526-13.745l-6.331,3.921c-0.913-0.717-1.91-1.351-2.96-1.914
			c-1.05-0.563-2.127-1.043-3.243-1.411l-0.224-7.439l-16.167,0.502l0.235,7.427c-2.166,0.903-4.193,2.157-6.003,3.711h0
			l-6.539-3.507l-7.647,14.259l6.542,3.508c0,0,0,0,0,0c-0.298,2.365-0.219,4.747,0.226,7.052h0l-6.315,3.912l8.526,13.745
			L150.208,464.538z M150.47,447.811c-0.298-14.642,17.378-19.977,25.231-7.616c0.974,1.533,1.51,3.318,1.542,5.133
			c0.259,14.63-17.339,19.941-25.218,7.612C151.048,451.41,150.507,449.627,150.47,447.811z"/>
		<path style="fill:#EC644E;" d="M46.348,375.069c0.674,0.507,1.396,0.971,2.157,1.378c0.767,0.411,1.547,0.756,2.341,1.031
			l0.166,5.348l11.668-0.363l-0.165-5.369l0,0c1.563-0.65,3.025-1.549,4.327-2.67l4.72,2.531l5.519-10.291l-4.719-2.531
			c0.211-1.705,0.152-3.422-0.17-5.083l4.563-2.832l-6.153-9.92l-4.569,2.83c-0.659-0.518-1.379-0.975-2.136-1.382
			c-0.758-0.406-1.535-0.752-2.341-1.018l-0.162-5.369l-11.668,0.363l0.17,5.36c-1.563,0.651-3.026,1.557-4.332,2.678h0
			l-4.719-2.531l-5.519,10.291l4.722,2.532c0,0,0,0,0,0c-0.215,1.707-0.158,3.426,0.163,5.09h0l-4.558,2.824l6.153,9.92
			L46.348,375.069z M46.537,362.997c-0.215-10.568,12.542-14.418,18.211-5.497c0.703,1.106,1.09,2.395,1.113,3.705
			c0.187,10.559-12.514,14.392-18.201,5.494C46.954,365.595,46.563,364.307,46.537,362.997z"/>
	</g>
</g>
<g id="Right_side">
	<g>
		<g>
			<path style="fill:#EC644E;" d="M263.137,129.713c0,0-7.902-3.065-5.144-14.649c0,0-8.503-9.853-2.197-22.664
				c0,0-1.568-20.141,17.513-17.192c0,0,5.748-6.344,18.024-3.6c12.276,2.744,17.877,11.62,17.877,11.62s13.331-2.004,24.432,5.259
				c11.101,7.264,11.898,17.968,11.898,17.968s12.614,2.391,18.775,10.448c6.161,8.057,6.755,14.501,6.755,14.501
				s10.809,4.273,10.292,18.347c0,0,17.158,4.718,13.428,30.617c0,0,11.204,6.685,14.664,17.911
				c3.459,11.225-3.575,16.673-3.575,16.673s10.272,11.777,2.64,27.381c0,0,10.014,4.865,8.084,17.47c0,0,11.451,13.02,9.161,36.123
				c-2.29,23.102-12.059,30.105-12.059,30.105s9.443,27.471-5.233,36.881c0,0,1.867,17.829-18.615,19.635
				c0,0-3.136,15.627-19.474,17.117c0,0-9.157,31.083-54.017,24.631c0,0-19.397,9.369-36.042,1.882
				c-14.428-6.489-17.1-18.653-17.1-18.653s-16.566-15.105-2.677-34.758c0,0-7.47-15.639,0.341-39.316c0,0-8.126-7.902-8.331-25.765
				c-0.145-12.651,5.988-20.758,5.988-20.758s-6.063-14.515,0.06-25.016c0,0-15.103-25.222,4.096-49.307
				c0,0-9.678-12.154-9.38-27.991c0.33-17.529,5.82-25.192,5.82-25.192S248.371,140.392,263.137,129.713z"/>
			<path style="fill:#FFFFFF;" d="M287.163,425.657c4.804,2.163,9.846,2.911,14.577,2.89c-6.446,0.957-14.192,0.884-21.418-2.37
				c-14.431-6.488-17.104-18.653-17.104-18.653s-16.563-15.107-2.672-34.758c0,0-7.465-15.637,0.343-39.312
				c0,0-8.131-7.902-8.339-25.764c-0.135-12.654,5.989-20.763,5.989-20.763s-6.062-14.515,0.062-25.016
				c0,0-15.097-25.224,4.096-49.304c0,0-9.68-12.154-9.378-27.99c0.333-17.53,5.823-25.193,5.823-25.193
				s-10.772-19.027,3.993-29.715c0,0-7.902-3.057-5.147-14.64c0,0-8.495-9.857-2.194-22.666c0,0-1.57-20.139,17.509-17.197
				c0,0,5.573-6.145,17.467-3.712c-7.185,0.457-10.605,4.232-10.605,4.232c-19.027-2.942-17.457,17.135-17.457,17.135
				c-6.29,12.778,2.183,22.604,2.183,22.604c-2.745,11.541,5.136,14.598,5.136,14.598c-14.723,10.647-3.993,29.622-3.993,29.622
				s-5.469,7.642-5.802,25.12c-0.302,15.793,9.358,27.906,9.358,27.906c-19.141,24.018-4.086,49.169-4.086,49.169
				c-6.103,10.47-0.062,24.933-0.062,24.933s-6.114,8.089-5.968,20.701c0.208,17.81,8.307,25.692,8.307,25.692
				c-7.788,23.602-0.343,39.198-0.343,39.198c-13.849,19.599,2.672,34.654,2.672,34.654S272.773,419.19,287.163,425.657z"/>
			<path style="fill:#EC644E;" d="M320.642,424.804c-3.608,1.393-10.813,3.702-18.902,3.743c8.411-1.248,14.629-4.252,14.629-4.252
				C317.835,424.503,319.259,424.669,320.642,424.804z"/>
			<path style="fill:#9ABAE3;" d="M263.367,76.213c0.864,0.034,1.791,0.129,2.762,0.276c0,0,0.62-0.678,1.883-1.495
				C266.216,75.156,264.675,75.583,263.367,76.213z"/>
			<path style="fill:#9ABAE3;" d="M268.012,74.994c1.557-0.146,3.316-0.089,5.298,0.213c0,0,1.556-1.717,4.764-2.969
				C273.217,72.245,269.9,73.77,268.012,74.994z"/>
			<path style="fill:none;stroke:#263238;stroke-width:2.5;stroke-linecap:round;stroke-linejoin:round;stroke-miterlimit:10;" d="
				M263.137,129.713c0,0-7.902-3.065-5.144-14.649c0,0-8.503-9.853-2.197-22.664c0,0-1.568-20.141,17.513-17.192
				c0,0,5.748-6.344,18.024-3.6c12.276,2.744,17.877,11.62,17.877,11.62s13.331-2.004,24.432,5.259
				c11.101,7.264,11.898,17.968,11.898,17.968s12.614,2.391,18.775,10.448c6.161,8.057,6.755,14.501,6.755,14.501
				s10.809,4.273,10.292,18.347c0,0,17.158,4.718,13.428,30.617c0,0,11.204,6.685,14.664,17.911
				c3.459,11.225-3.575,16.673-3.575,16.673s10.272,11.777,2.64,27.381c0,0,10.014,4.865,8.084,17.47c0,0,11.451,13.02,9.161,36.123
				c-2.29,23.102-12.059,30.105-12.059,30.105s9.443,27.471-5.233,36.881c0,0,1.867,17.829-18.615,19.635
				c0,0-3.136,15.627-19.474,17.117c0,0-9.157,31.083-54.017,24.631c0,0-19.397,9.369-36.042,1.882
				c-14.428-6.489-17.1-18.653-17.1-18.653s-16.566-15.105-2.677-34.758c0,0-7.47-15.639,0.341-39.316c0,0-8.126-7.902-8.331-25.765
				c-0.145-12.651,5.988-20.758,5.988-20.758s-6.063-14.515,0.06-25.016c0,0-15.103-25.222,4.096-49.307
				c0,0-9.678-12.154-9.38-27.991c0.33-17.529,5.82-25.192,5.82-25.192S248.371,140.392,263.137,129.713z"/>
			<g>
				<path style="fill:none;stroke:#263238;stroke-width:2.5;stroke-linecap:round;stroke-linejoin:round;stroke-miterlimit:10;" d="
					M416.602,259.803c-9.572-5.797-17.999-0.781-19.71,5.709"/>
				<path style="fill:none;stroke:#263238;stroke-width:2.5;stroke-linecap:round;stroke-linejoin:round;stroke-miterlimit:10;" d="
					M394.789,180.368c-15.173-9.082-29.133-9.658-45.911,4.06"/>
				<path style="fill:none;stroke:#263238;stroke-width:2.5;stroke-linecap:round;stroke-linejoin:round;stroke-miterlimit:10;" d="
					M372.577,159.776c0,0-4.464,7.116,2.133,14.004"/>
				<path style="fill:none;stroke:#263238;stroke-width:2.5;stroke-linecap:round;stroke-linejoin:round;stroke-miterlimit:10;" d="
					M286.866,298.195c0,0-4.464,7.116,2.133,14.004"/>
				<path style="fill:none;stroke:#263238;stroke-width:2.5;stroke-linecap:round;stroke-linejoin:round;stroke-miterlimit:10;" d="
					M381.362,149.751c-19.512-5.678-27.668,11.061-27.668,11.061s-15.564-5.673-28.529,2.894
					c-12.965,8.568-11.734,23.528-11.734,23.528"/>
				<path style="fill:none;stroke:#263238;stroke-width:2.5;stroke-linecap:round;stroke-linejoin:round;stroke-miterlimit:10;" d="
					M382.705,293.011c0,0-22.941-16.818-12.032-46.784"/>
				<path style="fill:none;stroke:#263238;stroke-width:2.5;stroke-linecap:round;stroke-linejoin:round;stroke-miterlimit:10;" d="
					M318.038,127.196c0,0,4.557-22.9,27.936-20.859"/>
				<path style="fill:none;stroke:#263238;stroke-width:2.5;stroke-linecap:round;stroke-linejoin:round;stroke-miterlimit:10;" d="
					M370.382,399.664c3.829-26.708-13.306-41.5-33.138-41.702"/>
				<path style="fill:none;stroke:#263238;stroke-width:2.5;stroke-linecap:round;stroke-linejoin:round;stroke-miterlimit:10;" d="
					M258.543,286.928c9.537,15.25,31.663,14.199,42.275,2.775"/>
				<path style="fill:none;stroke:#263238;stroke-width:2.5;stroke-linecap:round;stroke-linejoin:round;stroke-miterlimit:10;" d="
					M342.633,381.258c0,0-13.674,32.345-50.891,17.328"/>
				<path style="fill:none;stroke:#263238;stroke-width:2.5;stroke-linecap:round;stroke-linejoin:round;stroke-miterlimit:10;" d="
					M316.365,424.296c14.883-10.567,9.443-25.363,9.443-25.363"/>
				<path style="fill:none;stroke:#263238;stroke-width:2.5;stroke-linecap:round;stroke-linejoin:round;stroke-miterlimit:10;" d="
					M260.887,333.451c16.695,15.794,50.033,12.3,56.895-16.891c0,0,23.257,1.864,22.289-22.669"/>
				<path style="fill:none;stroke:#263238;stroke-width:2.5;stroke-linecap:round;stroke-linejoin:round;stroke-miterlimit:10;" d="
					M309.209,83.228c-16.76,3.401-32.912,16.703-24.07,42.976"/>
				<path style="fill:none;stroke:#263238;stroke-width:2.5;stroke-linecap:round;stroke-linejoin:round;stroke-miterlimit:10;" d="
					M269.129,96.101c0,0,9.906-9.495,19.21-0.978"/>
				<path style="fill:none;stroke:#263238;stroke-width:2.5;stroke-linecap:round;stroke-linejoin:round;stroke-miterlimit:10;" d="
					M259.139,159.421c6.757-10.514,22.657-14.992,37.949-5.106"/>
				<path style="fill:none;stroke:#263238;stroke-width:2.5;stroke-linecap:round;stroke-linejoin:round;stroke-miterlimit:10;" d="
					M262.699,212.605c12.485-13.053,29.065-13.972,38.884-1.84c11.464,14.165,1.848,28.089,1.848,28.089"/>
				<path style="fill:none;stroke:#263238;stroke-width:2.5;stroke-linecap:round;stroke-linejoin:round;stroke-miterlimit:10;" d="
					M320.857,264.22c0.125-16.276-16.135-34.615-41.61-22.792"/>
				<path style="fill:none;stroke:#263238;stroke-width:2.5;stroke-linecap:round;stroke-linejoin:round;stroke-miterlimit:10;" d="
					M404.598,292.559c3.469,11.686-6.718,43.136-39.53,39.549"/>
				<path style="fill:none;stroke:#263238;stroke-width:2.5;stroke-linecap:round;stroke-linejoin:round;stroke-miterlimit:10;" d="
					M405.963,332.301c-3.719,8.146-17.752,10.857-23.479-1.936"/>
				<path style="fill:none;stroke:#263238;stroke-width:2.5;stroke-linecap:round;stroke-linejoin:round;stroke-miterlimit:10;" d="
					M385.115,353.942c0,0-1.749,16.03-21.28,16.304"/>
				<path style="fill:none;stroke:#263238;stroke-width:2.5;stroke-linecap:round;stroke-linejoin:round;stroke-miterlimit:10;" d="
					M375.848,196.561c-6.139,21.48-35.775,26.668-49.308,11.441"/>
				<path style="fill:none;stroke:#263238;stroke-width:2.5;stroke-linecap:round;stroke-linejoin:round;stroke-miterlimit:10;" d="
					M293.099,341.856c0,0,18.222,11.188,9.497,33.962"/>
				<path style="fill:none;stroke:#263238;stroke-width:2.5;stroke-linecap:round;stroke-linejoin:round;stroke-miterlimit:10;" d="
					M260.545,372.767c10.579-12.438,25.001-6.28,25.001-6.28"/>
				<path style="fill:none;stroke:#263238;stroke-width:2.5;stroke-linecap:round;stroke-linejoin:round;stroke-miterlimit:10;" d="
					M332.404,136.059c0,0-15.259-16.097-33.308-0.476"/>
				<path style="fill:none;stroke:#263238;stroke-width:2.5;stroke-linecap:round;stroke-linejoin:round;stroke-miterlimit:10;" d="
					M345.965,255.523c0,0,2.935,18.035,22.467,15.758"/>
			</g>
		</g>
	</g>
</g>
<g id="Lightbulb">
	<g>
		<path style="fill:#EC644E;" d="M434.466,109.697c-1.902,2.753-2.987,10.485-2.987,10.485l-30.624-4.876
			c0,0,1.37-7.686,0.417-10.894c-2.869-9.679-11.346-19.3-8.891-34.719c2.949-18.524,19.383-26.118,35.197-23.618
			c15.808,2.535,29.071,14.858,26.121,33.382C451.245,94.875,440.199,101.387,434.466,109.697z"/>
		<path style="fill:#FFFFFF;" d="M441.35,51.29c-2.47-0.98-5.08-1.69-7.76-2.12c-15.81-2.5-32.25,5.09-35.2,23.62
			c-2.45,15.42,6.03,25.04,8.89,34.72c0.64,2.14,0.24,6.3-0.09,8.81l-6.33-1.01c0,0,1.37-7.69,0.41-10.9
			c-2.87-9.68-11.34-19.3-8.89-34.72c2.95-18.52,19.39-26.12,35.2-23.62C432.57,46.87,437.3,48.65,441.35,51.29z"/>
		<path style="fill:none;stroke:#263238;stroke-width:2.5;stroke-linecap:round;stroke-linejoin:round;stroke-miterlimit:10;" d="
			M434.466,109.697c-1.902,2.753-2.987,10.485-2.987,10.485l-30.624-4.876c0,0,1.37-7.686,0.417-10.894
			c-2.869-9.679-11.346-19.3-8.891-34.719c2.949-18.524,19.383-26.118,35.197-23.618c15.808,2.535,29.071,14.858,26.121,33.382
			C451.245,94.875,440.199,101.387,434.466,109.697z"/>
		
			<rect x="400.38" y="136.125" transform="matrix(0.9876 0.1573 -0.1573 0.9876 26.955 -63.1914)" style="fill:#9ABAE3;" width="24.895" height="5.253"/>
		
			<line style="fill:none;stroke:#263238;stroke-width:2.5;stroke-linecap:round;stroke-linejoin:round;stroke-miterlimit:10;" x1="412.053" y1="117.104" x2="411.567" y2="84.243"/>
		
			<line style="fill:none;stroke:#263238;stroke-width:2.5;stroke-linecap:round;stroke-linejoin:round;stroke-miterlimit:10;" x1="420.373" y1="118.429" x2="431.042" y2="87.344"/>
		<g>
			
				<line style="fill:none;stroke:#263238;stroke-width:2.5;stroke-linecap:round;stroke-linejoin:round;stroke-miterlimit:10;" x1="430.586" y1="25.582" x2="429.038" y2="35.302"/>
			
				<line style="fill:none;stroke:#263238;stroke-width:2.5;stroke-linecap:round;stroke-linejoin:round;stroke-miterlimit:10;" x1="392.788" y1="34.765" x2="398.566" y2="42.732"/>
			
				<line style="fill:none;stroke:#263238;stroke-width:2.5;stroke-linecap:round;stroke-linejoin:round;stroke-miterlimit:10;" x1="372.553" y1="67.985" x2="382.273" y2="69.533"/>
			
				<line style="fill:none;stroke:#263238;stroke-width:2.5;stroke-linecap:round;stroke-linejoin:round;stroke-miterlimit:10;" x1="381.736" y1="105.784" x2="389.703" y2="100.005"/>
			
				<line style="fill:none;stroke:#263238;stroke-width:2.5;stroke-linecap:round;stroke-linejoin:round;stroke-miterlimit:10;" x1="452.755" y1="116.836" x2="446.976" y2="108.868"/>
			
				<line style="fill:none;stroke:#263238;stroke-width:2.5;stroke-linecap:round;stroke-linejoin:round;stroke-miterlimit:10;" x1="472.989" y1="83.616" x2="463.27" y2="82.068"/>
			
				<line style="fill:none;stroke:#263238;stroke-width:2.5;stroke-linecap:round;stroke-linejoin:round;stroke-miterlimit:10;" x1="463.807" y1="45.817" x2="455.839" y2="51.596"/>
		</g>
		
			<rect x="398.189" y="117.694" transform="matrix(0.9876 0.1572 -0.1572 0.9876 24.2548 -63.8411)" style="fill:#9ABAE3;" width="34.812" height="7.346"/>
		
			<rect x="396.751" y="126.727" transform="matrix(0.9876 0.1572 -0.1572 0.9876 25.6578 -63.5035)" style="fill:#9ABAE3;" width="34.812" height="7.346"/>
	</g>
</g>
<g id="Music_Notes">
	<g>
		
			<path style="fill:#FFFFFF;stroke:#EC644E;stroke-width:2.5;stroke-linecap:round;stroke-linejoin:round;stroke-miterlimit:10;" d="
			M417.884,451.408l19.98-74.92l4.536,0.731c0,0-0.557,10.841,7.647,21.039c8.205,10.198,22.987,21.889,20.963,34.442
			c-2.024,12.553-8.771,18.825-9.176,18.651c-0.405-0.173,2.95-10.239-2.383-15.428c-5.332-5.189-17.909-11.762-22.81-21.644
			c0,0-9.753,39.013-12.737,46.108c-2.984,7.095-11.218,14.534-23.849,10.982c-12.631-3.552-14.299-13.99-12.017-20.12
			c2.669-7.166,10.519-10.25,17.66-8.841C414.719,444.187,417.884,451.408,417.884,451.408z"/>
		<g>
			
				<path style="fill:#FFFFFF;stroke:#EC644E;stroke-width:2.5;stroke-linecap:round;stroke-linejoin:round;stroke-miterlimit:10;" d="
				M430.047,263.449c0,0-2.456-4.335-7.802-4.335c-5.346,0-8.452,3.54-8.597,7.297c-0.144,3.757,1.951,8.597,9.897,8.669
				c7.947,0.072,10.006-6.068,10.584-9.464c0.578-3.396,3.802-29.284,3.802-29.284l21.612-3.48l-3.994,29.368
				c0,0-3.54-4.118-9.103-3.829c-5.563,0.289-7.73,4.479-7.802,7.586c-0.072,3.106,2.456,8.38,10.114,8.308
				c7.658-0.072,10.042-6.574,10.475-8.814c0.433-2.24,5.438-43.528,5.438-43.528l-29.7,4.84L430.047,263.449z"/>
		</g>
		
			<path style="fill:#FFFFFF;stroke:#9ABAE3;stroke-width:2.5;stroke-linecap:round;stroke-linejoin:round;stroke-miterlimit:10;" d="
			M414.587,357.023c-2.679-19.827-24.817-19.245-31.994-16.162l-2.886-9.356c0,0,17.013-14.373,17.469-27.484
			c0.449-13.119-11.718-33.683-21.552-33.979c-9.841-0.296-10.129,13.586-10.044,20.2c0.141,10.977,5.616,28.56,5.616,28.56
			s-24.845,21.44-26.667,40.41c-1.743,18.154,11.391,37.092,45.86,30.308c0,0,2.162,11.944,0.249,15.685
			c0,0-5.327-8.335-15.08-7.839c-9.759,0.488-14.398,8.198-14.146,13.859c0.252,5.661,5.058,12.853,15.64,13.529
			c10.589,0.685,18.204-7.056,20.253-17.198c2.049-10.15-0.712-19.972-0.712-19.972S417.266,376.85,414.587,357.023z
			 M372.847,292.882c1.099-10.861,8.403-10.252,11.01-8.834c2.607,1.425,6.107,6.727,3.177,14.746
			c-4.007,10.983-11.673,16.486-11.673,16.486S371.749,303.742,372.847,292.882z M361.313,372.296
			c-6.865-18.653,14.305-37.262,14.305-37.262l2.596,8.234c0,0-8.241,4.396-10.388,14.685c-2.14,10.29,2.545,16.29,2.979,16.253
			c0.434-0.037-2.001-15.532,9.579-21.416c0,0,6.128,17.177,8.848,31.527C389.232,384.317,367.675,389.609,361.313,372.296z
			 M394.984,382.272c-3.097-11.17-9.662-31.285-9.662-31.285s13.191-2.872,17.604,9.327
			C408.014,374.419,394.984,382.272,394.984,382.272z"/>
	</g>
</g>
</svg>
