<?xml version="1.0" encoding="UTF-8"?>
<svg version="1.1" viewBox="0 0 2047 2048" width="4675" height="4676" xmlns="http://www.w3.org/2000/svg">
<path transform="translate(0)" d="m0 0h2047v2048h-2047z" fill="#FEFEFE"/>
<path transform="translate(1040,294)" d="m0 0h10l12 3 35 16 29 13 40 18 82 37 42 19 36 16 37 17 36 16 35 16 29 13 40 18 82 37 42 19 4 2v2l4 2 7 8 4 10 1 5v10l-3 10-17 37-13 29-36 80-19 42-16 36-16 35-16 36-16 35-13 29v5l37 19 19 10 28 15 33 17 22 12 9 9 6 12 1 5v12l-3 10-19 37-10 19-12 23-10 19-15 29-12 22-19 37-12 22-15 29-10 19-15 28-17 33-10 19-15 28-17 33-10 19-15 28-19 37-10 19-12 23-12 22-9 17h-9l-17-6-20-10-22-12-37-19-19-10-28-15-33-17-22-12-37-19-22-12-37-19-22-12-37-19-22-12-37-19-22-12-37-19-19-10-28-15-33-17-22-12-16-9-12-9-4-5 1-5 9-17h-300l-11-3-10-6-7-7-5-10-2-7v-741l3-10 7-11 9-7 9-4 4-1 497-1 7-14 20-45 16-35 13-29 6-13 16-36 7-14 8-9 8-5z" fill="#D9D7DD"/>
<path transform="translate(1040,294)" d="m0 0h10l12 3 35 16 29 13 40 18 82 37 42 19 36 16 37 17 36 16 35 16 29 13 40 18 82 37 42 19 4 2v2l4 2 7 8 4 10 1 5v10l-3 10-17 37-13 29-36 80-19 42-16 36-16 35-16 36-16 35-16 36-19 42-16 36-17 37-18 40-19 42-16 36-19 42-12 27-7 9-9 7-12 4h-13l-12-4-35-16-36-16-37-17-36-16-35-16-16-7-1-1v-474l23 10 37 17 56 25 4 1h17l12-5 10-9 8-16 16-35 16-36 16-35 13-29 18-40 9-21 1-4v-15l-4-11-6-8-7-6-19-9-36-16-37-17-36-16-35-16-29-13-40-18-7-2h-16l-12 5-8 6-7 11-16 36-16 35-3 7h-86l3-9 16-35 5-10 4-10 27-60 6-13 16-36 7-14 8-9 8-5z" fill="#68465D"/>
<path transform="translate(1480,962)" d="m0 0 4 4 35 18 19 10 28 15 33 17 22 12 9 9 6 12 1 5v12l-3 10-19 37-10 19-12 23-10 19-15 29-12 22-19 37-12 22-15 29-10 19-15 28-17 33-10 19-15 28-17 33-10 19-13 24-3-1-5-5-11-8-16-9-27-14-22-12-37-19-22-12-37-19-22-12-37-19-19-10-28-15-33-17-22-12-37-19-22-12-12-6v-1l72-1 12-5 8-7 6-8 3-9 1-183h1l1 105 84 38 36 16 37 17 29 13 17 7 4 1h13l12-4 9-7 7-10 30-67 18-40 19-42 16-36 13-28 13-29 19-42z" fill="#E9D0A8"/>
<path transform="translate(736,1304)" d="m0 0h255l33 17 22 12 37 19 22 12 37 19 19 10 28 15 33 17 22 12 37 19 22 12 37 19 22 12 19 10 13 9 6 5 2 5-10 20-12 22-20 39-12 22-9 17h-9l-17-6-20-10-22-12-37-19-19-10-28-15-33-17-22-12-37-19-22-12-37-19-22-12-37-19-22-12-37-19-22-12-37-19-19-10-28-15-33-17-22-12-16-9-12-9-4-5 1-5z" fill="#D20144"/>
<path transform="translate(724,1326)" d="m0 0 5 5 12 9 16 9 28 15 33 17 22 12 37 19 19 10 28 15 33 17 22 12 37 19 22 12 37 19 22 12 37 19 22 12 37 19 22 12 39 20 22 12 37 19 17 6 8 1-2 6-15 29-10 19-15 28-6 10-7 7-10 5-7 2h-13l-12-4-23-12-22-12-37-19-19-10-28-15-31-16-19-10-28-15-33-17-22-12-37-19-22-12-37-19-19-10-28-15-33-17-22-12-37-19-22-12-29-15-9-8-6-10-2-7v-16l4-11 13-25 12-22z" fill="#EAD1A8"/>
<path transform="translate(1078,397)" d="m0 0h16l14 5 28 13 36 16 37 17 36 16 35 16 29 13 24 11 10 9 6 10 2 7v15l-5 14-17 37-13 29-18 40-19 42-13 29-10 22-9 10-10 6-6 2h-17l-13-5-82-37-24-11-1-1-1-187-2-11-6-11-7-7-10-5-8-2-44-1 3-9 17-37 16-36 8-10 10-6z" fill="#8EA2B8"/>
<path transform="translate(1480,962)" d="m0 0 4 4 35 18 19 10 28 15 33 17 22 12 9 9 6 12 1 5v12l-3 10-19 37-10 19-12 23-10 19-15 29-12 22-19 37-12 22h-8l-17-6-28-14-19-10-28-15-31-16-19-10-9-5 1-5 16-35 13-29 18-40 15-33 19-42 16-36 15-33z" fill="#E5EBEB"/>
<path transform="translate(1408,545)" d="m0 0h7l11 4 40 18 82 37 14 7 7 8 2 6v10l-5 12-18 40-19 42-15 33-7 8-6 3-11 1-11-4-84-38-36-16-16-8-7-8-2-6v-10l5-13 13-28 13-29 18-40 7-16 8-9z" fill="#DEE5ED"/>
<path transform="translate(1222,957)" d="m0 0h7l9 3 29 13 40 18 42 19 24 11 7 5 5 10v10l-4 11-16 35-16 36-16 35-7 14-6 5-8 3h-10l-25-11-82-37-33-15-6-4-5-6-2-6v-12l16-36 16-35 24-54 7-8z" fill="#EFC82D"/>
<path transform="translate(1297,750)" d="m0 0h11l21 9 35 16 29 13 40 18 18 8 7 7 3 6 1 9-3 10-16 35-12 27-19 42-7 16-6 7-8 4h-13l-29-13-42-19-36-16-35-16-5-5-4-6-1-3v-12l9-21 16-35 13-29 18-40 7-8z" fill="#DD422C"/>
<path transform="translate(1480,962)" d="m0 0 4 4 35 18 19 10 28 15 33 17 22 12 9 9 6 12 1 5v12l-3 10-19 37-10 19-12 23-5 8-5-5-12-9-16-9-25-13-22-12-37-19-19-10-24-13-1-3 17-37 13-29 18-40z" fill="#E9D0A8"/>
<path transform="translate(1094,779)" d="m0 0 9 3 37 17 29 13 20 9 10 8 6 10 3 9v14l-5 14-17 37-13 29-18 40-19 42-16 36-8 16-7 8-8 6-3 1z" fill="#96523B"/>
<path transform="translate(475,1025)" d="m0 0h544l6 3 4 7-1 8-5 5-5 2h-542l-7-3-3-4-1-8 3-6 4-3z" fill="#8EA2B8"/>
<path transform="translate(475,957)" d="m0 0h543l7 3 4 7-1 8-4 5-5 2h-544l-6-3-3-4-1-8 3-6z" fill="#8EA2B8"/>
<path transform="translate(476,1158)" d="m0 0h542l8 4 3 6-1 8-4 5-5 2h-544l-6-3-3-4-1-8 3-6z" fill="#8EA2B8"/>
<path transform="translate(498,554)" d="m0 0h63l12 3 9 6 7 8 4 10 1 5v52l-2 9-5 9-4 5-11 7-7 2h-71l-11-4-9-7-7-11-2-8v-55l3-10 5-8 9-8 10-4z" fill="#DC412C"/>
<path transform="translate(475,824)" d="m0 0h544l6 3 3 4 1 8-4 7-4 2h-549l-5-4-2-5 1-8 4-5z" fill="#8EA2B8"/>
<path transform="translate(473,1224)" d="m0 0h548l6 5 2 5-1 7-5 6-3 1h-546l-5-3-4-6v-6l4-6z" fill="#8EA2B8"/>
<path transform="translate(473,1091)" d="m0 0h548l6 5 2 5-1 7-4 5-4 2h-546l-6-4-3-6 1-8 5-5z" fill="#8EA2B8"/>
<path transform="translate(474,892)" d="m0 0h546l6 4 3 6-1 7-5 6-2 1h-548l-5-3-3-6 1-8 4-5z" fill="#8EA2B8"/>
<path transform="translate(474,759)" d="m0 0h546l6 4 3 6-1 7-5 6-2 1h-548l-7-6-1-9 4-6z" fill="#8EA2B8"/>
<path transform="translate(474,691)" d="m0 0h546l6 4 3 6-1 7-5 6-2 1h-548l-5-3-3-6 1-8 4-5z" fill="#8EA2B8"/>
<path transform="translate(618,626)" d="m0 0h405l5 6 1 8-3 7-4 3h-403l-6-5-1-3v-8l3-6z" fill="#8EA2B8"/>
</svg>
