<?xml version="1.0" encoding="UTF-8"?>
<svg version="1.1" viewBox="0 0 1600 1600" width="7730" height="7730" xmlns="http://www.w3.org/2000/svg">
<path transform="translate(0)" d="m0 0h1600v1600h-1600z" fill="#FAFBFC"/>
<path transform="translate(593,197)" d="m0 0h8l35 6 32 8 25 8 24 9 20 9 17 8 23 13 19 12 17 12 13 10 16 13 11 9 14 12 8 8 8 7 15 16 12 14 14 19 12 19 12 22 10 23 10 30 7 30 4 28 1 12v48l-1 12 13-7 12-9 12-11 10-13 8-14 5-10 6-21 2-15v-18l-3-20-6-20-8-16-7-12 2-1 23 14 15 10 17 12 16 12 14 11 14 12 10 9 8 7 16 15 12 12 7 8 13 14 9 11 14 17 14 19 12 17 11 17 12 20 13 23 15 29 13 28 9 21 14 35 12 36 6 19 10 38 8 37 6 40 3 34v51l-2 27-3 19-4 16-4 15-6 18-9 21-6 11-9 15-10 13-8 8-5 10-8 17-5 8h-2v3h-2l-2 5-5 6h-2l-1 3-15 10-19 9-25 9-14 4h-8l-42-6-8-1-1-1v-216h43l-1-13-19-19-7-8-14-14-7-8-15-15-7-8-14-14-7-8-15-15-7-8-14-14-7-8-14-14-7-8-15-15-7-8-14-14-4-5-4 2-12 12-8 7-18 18-8 7-18 18-8 7-18 18-8 7-18 18-8 7-12 12-52 15-44 12-156 44h-129l-5-1 3-2 220-60 16-15 10-9 15-14 8-7 15-15 8-7 12-11 8-7 9-8 5-12 2-10v-9l-3-13-6-10-9-8-11-5-8-2h-24l-18 4-17 6-15 8-11 9-9 11-8 15-5 14-3 1-15-6-16-6-1-2 14-7h3l-1-2-17 8-4 1-20-7-2-1 2-5 12-20 3-4-1-1-13 21-5 8-11-3-20-7-18-8-17-9-12-9-10-10-4 2-12 11-10 9-19 19-7 8-12 14-12 16-13 18-13 21-14 25-12 25-13 33-9 29-7 29-5 29-3 27-1 17v40l1 16v12l-4-2-11-13-7-11-10-15-8-14-4-8-13-17-5-7v-3h-2l-7-12-5-8-6-11-8-17-5-12-9-24-4-13-2-5-3-12-3-14-2-15-2-10-2-20v-59l2-22 3-21 6-32 4-15 7-27 12-36 7-20 5-14 5-12 5-13 5-12 10-23 9-20 13-27 12-22 16-27 24-36 13-18 14-18 9-11 12-14 18-20 16-17 12-12 8-7 7-7 8-7 7-5-2 16-2 20v34l3 26 6 27 10 30 8 18 10 19 11 16 7 7 5 1-2-10-11-30-7-26-3-13-2-19v-32l3-21 6-22 9-21 12-20 26-36 11-18 8-16 5-13 5-21 2-13v-41l-3-21-5-20z" fill="#FBB048"/>
<path transform="translate(501,839)" d="m0 0 4 2 10 10 15 10 27 13 20 7 12 4h2l10-17 8-12 2-1-1 4-13 21-4 7 10 3 12 4 4-1 18-8v3l-16 8 19 7 12 5h2l6-16 7-13 9-11 9-8 14-8 12-5 16-5 11-2h24l13 4 10 6 7 7 5 9 3 13v9l-3 13-5 10-10 9-12 11-8 7-16 15-5 5-16 15-12 11-13 12-9 8-220 60 2 1h129l78-22 82-23 54-15 38-11 18-18 8-7 18-18 8-7 18-18 8-7 18-18 8-7 18-18 8-7 8-8 4 2 11 12 12 12 7 8 15 15 7 8 14 14 7 8 14 14 7 8 15 15 7 8 14 14 7 8 15 15 7 8 14 14 7 8 13 13v13h-43l1 216 44 6 34 6 26 6 16 6 8 6 4 4v8l-8 7-11 5-15 5-30 7-43 7-50 6-57 5-64 4-68 3-37 1h-174l-107-4-49-3-58-5-45-5-42-6-35-7-24-7-16-8-5-6v-6l7-8 12-6 21-6 25-5-18-14-11-9-12-11-10-9-7-7-7-8-4-4v-14l-1-16v-40l2-27 4-30 6-29 7-26 10-30 11-26 13-27 14-24 10-16 13-18 14-18 13-15 12-13 19-19 8-7z" fill="#FAFBFC"/>
<path transform="translate(593,197)" d="m0 0h8l35 6 32 8 25 8 24 9 20 9 17 8 23 13 19 12 17 12 13 10 16 13 11 9 14 12 8 8 8 7 15 16 12 14 14 19 12 19 12 22 10 23 10 30 7 30 4 28 1 12v48l-1 12 13-7 12-9 12-11 10-13 8-14 5-10 6-21 2-15v-18l-3-20-6-20-8-16-7-12 2-1 23 14 15 10 17 12 16 12 14 11 14 12 10 9 8 7 16 15 12 12 7 8 13 14 9 11 14 17 14 19 12 17 11 17 12 20 13 23 15 29 13 28 9 21 14 35 12 36 6 19 10 38 8 37 6 40 3 34v51l-2 27-3 19-4 16-4 15-6 18-9 21-6 11-9 15-10 13-8 8-5 10-8 17-5 8h-2v3h-2l-2 5-5 6-3 1 1-13 3-27 1-15v-42l-3-36-4-27-3-15v-5l10 1h3l-7-29-8-26-10-26-12-27-13-25-12-20-15-22-12-16-8-10-11-13-12-13-25-25-8-7-13-11-20-15-17-12-21-13-18-10-23-12-18-8-7 1-15 7-9-1-28-9-15-4-1-1 1-15 3-27 1-10v-48l-5-35-4-17-10-30-11-24-13-22-13-18-11-13-11-12-18-18-8-7-13-11-14-11-17-13-24-16-21-12-19-10-23-10-16-6-21-7-11-3v27l-2 20-6 26-9 24-8 16-9 16-13 19-14 19-11 17-7 14-5 15-3 16v29l3 19 7 25 13 37 2 12-1 17-4 13-7 11-9 9-8 5-15 4h-8l-12-3-10-5-10-8-10-10-11-15-10-17-12-25-11-30-8-29-2-9-6 5-11 14-12 15-12 17-20 30-15 25-12 22-9 17-13 28-17 40-2 5-7-1-22-5-14-3-23-5h-6l-2 1 1-10 12-36 7-20 5-14 5-12 5-13 5-12 10-23 9-20 13-27 12-22 16-27 24-36 13-18 14-18 9-11 12-14 18-20 16-17 12-12 8-7 7-7 8-7 7-5-2 16-2 20v34l3 26 6 27 10 30 8 18 10 19 11 16 7 7 5 1-2-10-11-30-7-26-3-13-2-19v-32l3-21 6-22 9-21 12-20 26-36 11-18 8-16 5-13 5-21 2-13v-41l-3-21-5-20z" fill="#F37054"/>
<path transform="translate(782,710)" d="m0 0h57l33 3 37 6 21 5-1 18 28 8 18 6h6l18-8 6 1 26 12 28 15 24 15 17 12 17 13 13 11 8 7 10 9 27 27 7 8 11 13 12 16 12 17 11 17 12 21 13 25 14 33 11 33 7 27 2 11-14-3 6 32 4 35 1 16v42l-3 35-2 14v7l-14 10-21 10-25 9-14 4h-8l-42-6-8-1-1-1v-216h43l-1-13-19-19-7-8-14-14-7-8-15-15-7-8-14-14-7-8-15-15-7-8-14-14-7-8-14-14-7-8-15-15-7-8-14-14-4-5-4 2-12 12-8 7-18 18-8 7-18 18-8 7-18 18-8 7-18 18-8 7-12 12-52 15-44 12-156 44h-129l-5-1 3-2 220-60 16-15 10-9 15-14 8-7 15-15 8-7 12-11 8-7 9-8 5-12 2-10v-9l-3-13-6-10-9-8-11-5-8-2h-24l-18 4-17 6-15 8-11 9-9 11-8 15-5 14-3 1-15-6-16-6-1-2 14-7h3l-1-2-17 8-4 1-20-7-2-1 2-5 12-20 3-4-1-1-13 21-5 8-11-3-20-7-18-8-17-9-12-9-10-10-4 2-12 11-10 9-19 19-7 8-12 14-12 16-13 18-13 21-14 25-12 25-13 33-9 29-7 29-5 29-3 27-1 17v40l1 16v12l-4-2-11-13 1-2-1-15v-43l3-36 6-37 9-36 12-36 10-24 12-25 12-22 15-24 13-18 10-13 11-13 9-11 35-35 11-9 13-11 20-15 18-12 21-13 26-14 28-13 29-11 28-9 28-7 25-5 30-4z" fill="#FBC983"/>
<path transform="translate(501,839)" d="m0 0 4 2 10 10 15 10 27 13 20 7 12 4h2l10-17 8-12 2-1-1 4-13 21-4 7 10 3 12 4 4-1 18-8v3l-16 8 19 7 12 5h2l6-16 7-13 9-11 9-8 14-8 12-5 16-5 11-2h24l13 4 10 6 7 7 5 9 3 13v9l-3 13-5 10-10 9-12 11-8 7-16 15-5 5-16 15-12 11-13 12-9 8-176 48-36 10h-6l-6-11v-3h-2v-3h-2l-1-4h-2l-4-6-11-8-7-3h-16l-10 4-9 8-7 14-2 11v8l3 15 2 6v9l-8 15-2 8v10l4 11 4 5 14 9 11 6 9 7 6 7 4 11-1 11-5 15-1 11 4 10 4 4 11 5 26 9 9 4 3 2 1 33v33l9 1 63 15 26 6 29 7 13 3 24-1 72-4 110-5 12-1v-2l79-5 9-1 55-3 75-5 64-4h14v-32l38 5 36 6 27 6 18 6 9 6 5 5v8l-8 7-11 5-15 5-30 7-43 7-50 6-57 5-64 4-68 3-37 1h-174l-107-4-49-3-58-5-45-5-42-6-35-7-24-7-16-8-5-6v-6l7-8 12-6 21-6 25-5-18-14-11-9-12-11-10-9-7-7-7-8-4-4v-14l-1-16v-40l2-27 4-30 6-29 7-26 10-30 11-26 13-27 14-24 10-16 13-18 14-18 13-15 12-13 19-19 8-7z" fill="#FBDAB9"/>
<path transform="translate(650,347)" d="m0 0 6 1 13 4 24 8 12 5 26 12 22 12 19 12 17 12 14 11 16 13 13 11 13 12 19 19 9 11 11 14 10 15 12 21 9 20 8 23 6 24 5 35v22l-13-1-40-8-57-11-185-36-56-11-20-4v-21l2-12 3-10 7-15 7-12 12-17 13-18 11-17 11-20 8-20 4-11 4-16 3-17 1-13z" fill="#FCBC45"/>
<path transform="translate(1091,623)" d="m0 0 4 2 10 9 8 7 8 8 8 7 15 16 12 13 9 11 14 17 13 18 12 17 12 19 14 24 17 32 16 34 15 36 13 36 11 35 11 44 7 35v3h3v2l19 4 16 4 7 1 5 4-1 21-3 19-4 16-4 15-6 18-9 21-6 11-9 15-10 13-8 8-5 10-8 17-5 8h-2v3h-2l-2 5-5 6-3 1 1-13 3-27 1-15v-42l-3-36-4-27-3-15v-5l10 1h3l-7-29-8-26-10-26-12-27-13-25-12-20-15-22-12-16-8-10-11-13-12-13-25-25-8-7-13-11-20-15-17-12-21-13-18-10-23-12-21-9 4-3 12-7 14-10 13-12 7-7 11-14 11-18 9-19 4-10z" fill="#FBB048"/>
<path transform="translate(236,809)" d="m0 0h3l11 1 18 4 24 5 15 4 4-1 4-10 1 3 1 4 48 9 22 5 19 3 25 5 18 4 12 2h6l-2 4-20 20-9 11-12 14-14 19-12 18-15 25-14 27-9 20-10 26-8 25-9 36-6 37-3 36v43l1 16-3-1-16-24-8-14-4-8-13-17-5-7v-3h-2l-7-12-5-8-6-11-8-17-5-12-9-24-4-13-2-5-3-12-3-14-2-15-2-10-2-20v-59l2-22 3-21 6-32 4-15z" fill="#F99D4D"/>
<path transform="translate(478,1293)" d="m0 0h13l1 31 30 7 42 10 26 6 29 7 13 3 24-1 72-4 110-5 12-1v-2l79-5 9-1 55-3 75-5 64-4h14v-32l38 5 36 6 27 6 18 6 9 6 5 5v8l-8 7-11 5-15 5-30 7-43 7-50 6-57 5-64 4-68 3-37 1h-174l-107-4-49-3-58-5-45-5-42-6-35-7-24-7-16-8-5-6v-6l7-8 12-6 21-6 34-7 39-6z" fill="#88DEDE"/>
<path transform="translate(986,861)" d="m0 0h6l-6 7-8 8-8 7-18 18-8 7-18 18-8 7-18 18-8 7-18 18-8 7-12 12-52 15-44 12-156 44h-129l-5-1 3-2 220-60 16-15 10-9 15-14 8-7 15-15 8-7 12-11 8-7 34-32 17-3z" fill="#743C74"/>
<path transform="translate(1146,1294)" d="m0 0 38 5 36 6 27 6 18 6 9 6 5 5v8l-8 7-11 5-15 5-30 7-43 7-50 6-57 5-64 4-68 3-37 1h-174l-107-4-49-3-58-5-45-5-42-6-35-7-24-7-16-8-5-6v-6l2-3h2l2 5 8 5 13 5 26 6 37 6 42 5 56 5 63 4 70 3 82 2h137l83-2 70-3 17-1 3-1 25-2-22-8-30-13-14-7v-1l23-2 96-6h14z" fill="#69D9C4"/>
<path transform="translate(738,840)" d="m0 0h24l13 4 10 6 7 7 5 9 3 13v9l-3 13-5 10-10 9-12 11-8 7-16 15-5 5-16 15-12 11-13 12-9 8-84 23-2-1 4-12 9-10 9-8 8-7 7-8 4-10 2-17 3-30 3-16 6-16 7-13 9-11 9-8 14-8 12-5 16-5z" fill="#D487E0"/>
<path transform="translate(422,1023)" d="m0 0h16l12 6 7 6 3 4v2h2l1 4h2v3h2l6 12v2l2 1-4 1 2 2h-12v13h9l-7 12-1 3v13l4 10 8 10 8 8 9 7v117l-10-4-19-7-16-6-8-5-4-8-1-10 5-17 2-8-1-10-5-10-9-8-14-8-11-7-6-5-5-10-1-4v-10l3-10 7-13v-9l-4-14-1-7v-8l3-14 6-11 7-7 10-5z" fill="#9EA0EA"/>
<path transform="translate(1260 1e3)" d="m0 0h8l14 3 25 5h5l1-4 7 35v3h3v2l19 4 16 4 7 1 5 4-1 21-3 19-4 16-4 15-6 18-9 21-6 11-9 15-10 13-8 8-5 10-8 17-5 8h-2v3h-2l-2 5-5 6-3 1 1-13 3-27 1-15v-42l-3-36-4-27-3-15v-5l10 1h3l-7-29-8-26-10-26z" fill="#F99D4D"/>
<path transform="translate(1145,1249)" d="m0 0h1v77l-126 8h-9l-18-10-19-12-14-10-14-11-10-9-8-7-11-11v-2z" fill="#D6DDE7"/>
<path transform="translate(579,909)" d="m0 0 1 3-6 14 5-4 10-9 2 1-15 15-2 4h-2v7l6 2 19 9 31 14 1 3-10 19-9 12-11 14-8 14-3 5-73 20-23 6 2-4 6-11 1-4v-11l-5-15-5-11-4-13-1-6v-13l3-12 5-10 9-10 10-7 11-6 5-4 6 1 15 7 11 5h6l11-23z" fill="#FCABD5"/>
<path transform="translate(741,956)" d="m0 0 21 18 16 15 6 7 5 5 7 9-2 2-171 48-21 6h-129l-5-1 3-2 220-60 16-15 10-9 15-14 8-7z" fill="#823F79"/>
<path transform="translate(1009,1334)" d="m0 0 6 1 25 12 30 12 11 4v1l-27 2-3 1-61 3-59 2-50 1h-137l-21-1-7-1 4-2-1-2-1-14 10-1 110-5 12-1v-2l79-5 9-1 55-3z" fill="#92E5DA"/>
<path transform="translate(774,1166)" d="m0 0h26v138l-20 2-44 3v-142z" fill="#C5CED9"/>
<path transform="translate(343,1326)" d="m0 0h2l2 5 8 5 13 5 26 6 37 6 42 5 56 5 63 4 70 3 82 2h137l83-2 70-3 26-1-2 1v9h8l-1 2-64 4-68 3-37 1h-174l-107-4-49-3-58-5-45-5-42-6-35-7-24-7-16-8-5-6v-6z" fill="#39B9B2"/>
<path transform="translate(782,710)" d="m0 0h57l33 3 37 6 21 5-2 18-11-2-31-6-33-4-14-1h-59l-32 3-36 6-40 10-35 12-26 11-27 13-21 12-19 12-17 12-17 13-6 5-3-1-7-12v-2l14-11 16-12 18-12 21-13 26-14 28-13 29-11 28-9 28-7 25-5 30-4z" fill="#FDBF66"/>
<path transform="translate(797,905)" d="m0 0 4 2 10 8 11 7 18 13 21 14 19 13 4 2-2 4-8 8-8 7-12 12-52 15-6 1-10-12v-2l-4-2-13-14-8-7-14-12-5-4v-3l8-7 16-15 15-13 8-8z" fill="#642C61"/>
<path transform="translate(610,855)" d="m0 0 1 3-11 17-7 12 10 3 12 4 4-1 18-8v3l-16 8 19 7 12 5 2 1-1 9-3 23-2 24-3 12-6 9-10 10-10 8-7 7-4 8-3 8-13 4h-3l2-6 7-12 8-10 10-13 9-16 3-6v-2l-26-12-20-9-10-5-1-5 1-2h2l2-5 14-14-8 6-8 8-1-2 6-15-9 19-3 5-9-1-22-10-6-3 6-7 10-14 10-18 4-6 6 1 23 8h2l10-17 8-12z" fill="#FDB3C1"/>
<path transform="translate(999,748)" d="m0 0 6 1 26 12 28 15 24 15 17 12 17 13 13 11 8 7 10 9 27 27 7 8 11 13 12 16 12 17 11 17 12 21 13 25 14 33 11 33 7 27 2 11-14-3-1 2-8-30-10-30-12-28-11-23-13-23-20-30-9-12-11-14-13-15-14-15-15-15-8-7-15-13-16-12-18-13-22-14-18-10-23-12-23-10-15-6 3-2z" fill="#FDBF66"/>
<path transform="translate(904,1069)" d="m0 0h47l1 1v149l-38 2h-11v-151z" fill="#D58AE0"/>
<path transform="translate(654,908)" d="m0 0 1 2 9 3 18 8 20 10 17 10 16 11 4-2 11-10 14-10 10-6 2 1-17 16-12 11-5 4-6 7-8 7-16 15-12 11-9 8-84 23-2-1 4-12 9-10 9-8 8-7 7-8 4-10 2-17 3-30z" fill="#DEB1DF"/>
<path transform="translate(967,1069)" d="m0 0h46v147l-8 1-22 1h-16z" fill="#D588E0"/>
<path transform="translate(493,824)" d="m0 0 3 3 7 12-11 9-17 16-17 17-7 8-12 14-12 16-13 18-13 21-14 25-12 25-13 33-9 29-7 29-5 29-3 27-1 17v40l1 16v12l-4-2-11-13 1-2-1-15v-43l3-36 6-37 9-36 12-36 10-24 12-25 12-22 15-24 13-18 10-13 11-13 9-11 35-35 11-9z" fill="#FCD398"/>
<path transform="translate(1028,1069)" d="m0 0h45v144l-1 1-23 1h-21z" fill="#D589E0"/>
<path transform="translate(236,809)" d="m0 0h3l11 1 18 4 24 5 15 4 4 1-6 16-14 39-9 27h-2v2h-7l-38-8-12-2-2 1-2 4v-11l4-29 4-20 4-15z" fill="#F78751"/>
<path transform="translate(1091,623)" d="m0 0 4 2 10 9 8 7 8 8 8 7 15 16 12 13 9 11 11 14v1h-8l-72-14-28-6-2-1 1-4 12-23 6-15z" fill="#FCBC45"/>
<path transform="translate(986,861)" d="m0 0h6l-6 7-8 8-8 7-18 18-8 7-17 17-7-3-13-8-11-8-16-11-13-9-4-5-2-2z" fill="#834079"/>
<path transform="translate(1319,1043)" d="m0 0 1 3h3v2l19 4 16 4 7 1 5 4-1 21-3 19-4 16-4 15-6 18-2 5-2-8-20-5-2-3-2-47-3-31z" fill="#F78751"/>
<path transform="translate(1012,1146)" d="m0 0h1v70l-8 1-22 1h-16v-71h42z" fill="#BF80E4"/>
<path transform="translate(1071,1145)" d="m0 0h1l1 37v31l-1 1-23 1h-21v-68h43z" fill="#BF80E4"/>
<path transform="translate(570,1036)" d="m0 0 5 2 7 1 9 5-1 2 9 5h4l4 2-1 3 5 1 1 1v5l-10 3h-129l-5-1 3-2 81-22z" fill="#B16580"/>
<path transform="translate(741,956)" d="m0 0 21 18 16 15 7 8v2l-79 4h-14l4-5 8-7 15-14 12-11 9-8z" fill="#B16580"/>
<path transform="translate(785,997)" d="m0 0 4 4 7 9-2 2-61 17h-5l-5-4-14-8-11-6-6-4-6-1 2-2 3-1 74-4h20z" fill="#743C74"/>
<path transform="translate(641,905)" d="m0 0 6 1 7 3-1 9-3 23-2 24-3 12-6 9-10 10-10 8-7 7-4 8-3 8-13 4h-3l2-6 7-12 8-10 10-13 9-16 8-19 5-19 2-16z" fill="#FBDBB9"/>
<path transform="translate(470,1079)" d="m0 0h21v63l-6-4-10-9-8-9-5-10-1-3v-13l6-12z" fill="#FCACD6"/>
<path transform="translate(611,856)" d="m0 0 5 1 9 7 6 7 6 13-3 3-16 8-9-2-16-6 2-5 12-20z" fill="#F37054"/>
<path transform="translate(586,853)" d="m0 0h18l6 2-7 12-10 16-2 3-11-3-19-7 2-5 11-12z" fill="#F37054"/>
<path transform="translate(1146,1068)" d="m0 0h32l9 9v1h-41z" fill="#D7DEE8"/>
<path transform="translate(774,924)" d="m0 0 2 1-17 16-12 11-5 4-6 7-8 7-7 6-1-2 7-10 11-13 12-11 14-10z" fill="#FCC586"/>
<path transform="translate(351,1319)" d="m0 0 4 1 4 12 8 5 14 5 25 6 5 1v1l-12-1-27-6-15-5-9-5-3-3-1-5z" fill="#69D9C4"/>
<path transform="translate(637,887)" d="m0 0 2 4 1 5v7l-5-1-14-5-1-2z" fill="#F37054"/>
<path transform="translate(736,953)" d="m0 0 5 3-2 4-13 12-5 4-1-2 7-10z" fill="#F8D6C0"/>
<path transform="translate(327,1227)" d="m0 0 7 1v2l3 1 1 2v7l-4-2-7-9z" fill="#FCCB88"/>
</svg>
