<?xml version="1.0" encoding="UTF-8"?>
<svg version="1.1" viewBox="0 0 2048 689" width="300" height="101" xmlns="http://www.w3.org/2000/svg">
<path transform="translate(217,1)" d="m0 0h1606l165 1 16 2 10 4 11 8 8 8 7 10 4 11 1 7v574l-1 19-4 11-6 9-8 9-11 7-16 8h-1954l-14-8-10-6-8-8-6-9-6-14-1-1v-597l10-18 7-9 11-9 12-6 6-2z" fill="#EDEDF0"/>
<path transform="translate(949,102)" d="m0 0h152l67 2 63 3 72 6 53 6 50 7 59 10 65 13 56 13 55 14 53 15 24 8 11 6 8 7 4 7 1 5v240l-2 9-6 9-9 7-17 7-36 10-52 14-48 12-53 12-72 14-64 10-54 7-60 6-62 4-59 3-40 1h-170l-65-2-56-3-65-5-63-7-49-7-37-6-63-12-55-12-64-16-49-13-31-9-13-5-11-6-6-5-5-7-2-6-1-79v-161l2-10 5-7 10-8 12-6 44-13 49-13 60-15 64-14 49-9 61-10 63-8 52-5 57-4 39-2 30-1z" fill="#EDEDF0"/>
<path transform="translate(78,23)" d="m0 0h1874l39 1 10 2 9 6 8 8 5 12v160l-1 12h-207l-39-1-5-17-6-11-11-12-13-9-15-7-18-6-42-12-57-15-50-12-41-9-50-10-48-8-57-8-63-7-45-4-71-4-48-2-52-1h-116l-49 1-78 3-50 3-77 7-63 8-50 8-43 8-50 10-47 11-75 19-49 14-21 7-17 9-12 11-8 11-6 13-3 10-1 1-29 1h-217l-1-50v-114l2-12 6-10 9-9 9-4 4-1z" fill="#D4142A"/>
<path transform="translate(22,467)" d="m0 0h135l113 1 3 9 5 14 9 13 9 8 19 10 30 10 47 13 50 13 46 11 56 12 54 10 56 9 63 8 61 6 57 4 79 3 54 1h115l73-2 66-3 55-4 58-6 62-8 56-9 38-7 58-12 39-9 55-14 40-11 29-9 20-7 17-9 10-9 7-9 5-12 4-13 1-1 192-1 54 1 1 1v174l-3 7-7 8-6 5-9 3-8 1h-1436l-374 1h-85l-41-1-12-2-8-5-7-8-3-10-2-25-1-114v-35z" fill="#FFCF33"/>
<path transform="translate(949,102)" d="m0 0h152l67 2 63 3 72 6 53 6 50 7 59 10 65 13 56 13 55 14 53 15 24 8 11 6 8 7 4 7 1 5v240l-2 9-6 9-9 7-17 7-36 10-52 14-48 12-53 12-72 14-64 10-54 7-60 6-62 4-59 3-40 1h-170l-65-2-56-3-65-5-63-7-49-7-37-6-63-12-55-12-64-16-49-13-31-9-13-5-11-6-6-5-5-7-2-6-1-79v-161l2-10 5-7 10-8 12-6 44-13 49-13 60-15 64-14 49-9 61-10 63-8 52-5 57-4 39-2 30-1zm1 52-64 1-78 3-76 5-68 7-60 8-50 8-38 7-45 9-57 13-35 9-15 6-6 4-5 5-6 9-2 7v179l3 11 6 9 10 7 16 6 60 15 62 13 54 10 57 9 63 8 60 6 93 6 60 2 51 1h168l76-2 50-2 50-3 69-6 67-8 47-7 46-8 75-15 56-13 25-7 13-5 6-4 6-5 5-8 2-10v-174l-2-13-6-8-8-7-10-5-24-7-45-11-51-11-52-10-48-8-49-7-61-7-45-4-75-5-64-2-80-1z" fill="#D4142A"/>
<path transform="translate(1635,261)" d="m0 0h26l-2 10-13 34-6 20v2l15 3-2 10-5 12-4 2-15 1-4 4-12 36-6 22v9l5 6 4 2h8l14-7 14-10 7-2 1 1v9l-8 9-13 9-12 6-16 4-5 1h-11l-13-5-8-7-3-2h-6l-19 9-14 4-5 1h-13l-16-4-10-7-8-9-1-2-5 1-18 10-16 7-13 3h-8l-10-3-9-8-5-9-1-4v-13l6-22 6-13 3-8v-3l-5-1-8 3-7 7-8 12-11 13-14 15-13 12-13 10-16 9-10 4h-8l-7-3-4-2-7-8-4 1-14 8-14 3-10-2-7-3-8-8-6-11-1-1-7 1-22 13-19 9-6 2-8-1-6-4-6-8-2-4v-13l4-16 11-28v-8l-4-2h-8l-5 4-10 21-11 31-7 21-3 6-6 1h-22l-11-1 6-17 8-19 9-25 2-10v-6l-3-4-9-1-5 2-2 4-8 17-10 28-7 21-5 10-4 1h-29l-1-2 11-31 11-28 10-30v-4h-9l-11 2-7 1-4-10 1-3 10-4 16-8 15-6 17-5 5 1 6 8 3 8 3 1 8-5 11-8 8-4h13l6 4 15 15 5-2 13-10 12-6 9-1 8 3 6 7 2 5-1 9-12 33-7 19-3 11v7l2 1 16-1 16-6 4-13 6-18 7-14 8-11 13-13 15-10 10-4 10-2 11 1 10 4 6-1 5-5 9-2h19l-3 12-11 26-9 24-5 17-1 5v10l7 1 14-7 13-12 9-10 13-18 6-13 5-18 6-21 5-7 5-1 5 2 5 4 3 1 15 1 1 4-7 11-3 5 1 7 4 2 19 1 5 4 1 2v11l-7 8-5 4-3 8-3 18v16l3 8 6 3 5-1 18-8 10-6 1-5-2-12v-20l3-10 5-10 7-11 7-8 11-8 14-6 4-1h17l10 5 7 8 2 4v12l-4 13-7 14-9 11-10 9-17 11-4 3 1 5 10 8 5 2 6 1h9l13-3 12-6 7-7 9-15 7-15 7-19 4-14-1-1-13-1-2-1v-9l4-14 2-2 15-1 5-2 6-16 15-41 4-5z" fill="#016AB8"/>
<path transform="translate(23,244)" d="m0 0h221l25 1 1 1v196l-1 4-25 1h-213l-8-1z" fill="#016AB8"/>
<path transform="translate(1781,244)" d="m0 0h241l1 116-1 86-1 1h-185l-59-1-1-1v-200z" fill="#016AB8"/>
<path transform="translate(607,228)" d="m0 0h5l-3 10-12 31-18 44-10 23-12 26-2 5 10-5 19-14 21-12 15-7 8-2h8l10 8 7 8 5 1 13-7 10-6 10-4h11l6 4 4 5 2 4v12l-14 40-5 20v10h7l16-8 4-3 6-22 5-12 10-16 12-13 7-7 13-8 10-4 19-3h14l10 1 6-12 21-49 2-2 14-1h12l-1 7-11 26-17 40-15 40-9 30-2 9v5h9l20-6 6-2h4l4 8-1 4-5 3-14 5-32 16-14 5-7-1-5-5-3-4h-5l-10 6-13 4h-12l-9-4-8-7-6-10-4-5-5 2-14 9-19 9-6 2h-14l-6-3-6-7-2-5 1-10 12-42v-9l-3-3-5-2-6 1-5 5-6 12-10 30-7 23-4 9-3 1h-28l-5-1 3-10 15-39 5-21-1-8h-12l-12 5-20 14-10 9-11 9-15 12-17 12-15 9-17 8-16 5-6 1h-13l-14-3-12-5-10-7-7-7-6-12-2-7v-12l3-10 5-7 4 2 5 8 7 11 8 7 12 5 8 2h18l16-4 16-8 11-9 7-7 11-15 9-16 8-17 9-24 10-27 11-29 1-3-23 4-28 7-16 6-6 4-6 8-3 10v11l4 9 8 4 13 3 2 2-1 4-9 7-12 6-8 2h-10l-10-4-9-7-6-7-5-10-2-6v-11l3-12 6-11 10-11 13-9 17-8 16-6 32-8 28-5 28-3z" fill="#0169B7"/>
<path transform="translate(929,307)" d="m0 0h23l16 4 9 4 10 7 8 7 10 14 6 11 2 5 2 13v20l-3 16-5 12-6 9-9 10-9 8-16 8-13 3-6 1h-19l-16-4-16-8-11-9-7-7-9-14-3-6-4-20v-21l2-11 8-16 9-12 10-9 11-7 16-6z" fill="#EDEDEF"/>
<path transform="translate(929,307)" d="m0 0h23l16 4 9 4 10 7 8 7 10 14 6 11 2 5 2 13v20l-3 16-5 12-6 9-9 10-9 8-16 8-13 3-6 1h-19l-16-4-16-8-11-9-7-7-9-14-3-6-4-20v-21l2-11 8-16 9-12 10-9 11-7 16-6zm7 9-16 3-13 5-12 8-7 7-9 13-5 11-2 10v16l4 16 5 12 7 10 8 8 10 7 11 5 7 2 8 1h13l16-3 16-8 12-11 8-10 5-11 3-12 1-14-2-15-4-12-6-11-8-10-8-7-14-7-16-3z" fill="#E71429"/>
<path transform="translate(304,221)" d="m0 0 1 2h2l1 17 1 4 1 14v104l-1 66 1 24 1 15 1 4h2l7 10v2h3v2l5 2 15 7 21 4 8 3 22 5 21 6 16 4 10 2 23 6 6 1 14 4 23 5 31 7 12 2 13 3 14 3 46 8 25 4 26 4 24 3 22 3 65 6 16 1 8 2 19 2-4 2-23-1-60-5-68-8-54-8-55-10-53-11-39-9-64-16-55-15-24-8-13-7-6-5-5-7-2-6-1-79v-161z" fill="#E51229"/>
<path transform="translate(1226,151)" d="m0 0h19l17 3 9 1 24 1h11l5 1h16l19 3 14 2 6-1 3 1 13 1 5 1 13 3 20 2h3l5 1 5-1v2l3-1 4 2 12 2 8 1 14 1v2h2l1-2 7 3h8l9 2h11l10 2 23 3 20 4 24 4 6 3h9l5 2 9 3 10 1 9 4 22 6 5 3v2l4 1 8 4 6 2 9 6 8 10v4l-3-1-7-8-7-5-16-6-60-15-51-11-52-10-48-8-49-7-61-7-45-4-75-5-26-1 4-4 3-1z" fill="#E71229"/>
<path transform="translate(936,316)" d="m0 0h12l16 3 14 7 11 10 9 14 5 12 2 9 1 14-2 15-4 12-6 10-9 10-8 7-16 8-16 3h-13l-12-2-12-5-9-6-10-9-7-9-5-11-4-13-1-6v-16l2-10 8-16 9-11 8-7 12-7 13-4zm-6 9-14 4-11 6-9 7-8 10-5 12-2 7v19l4 16 6 11 8 9 10 7 10 5 11 3 14 1 14-3 10-4 10-8 9-10 6-10 3-9 1-5v-18l-3-14-5-10-11-12-8-7-10-5-10-2z" fill="#EDEDF0"/>
<path transform="translate(638,103)" d="m0 0h5l1 1h6l-4 2-16 5-25 5-10 4h-3v2h20l12-2 26-2h10l3-1h8l1-1h23v1l-7 1 2 2-37 5-17 2 1-3h-7l-40 6h-10l-2-1-3 1-11 1v2l-27 4-40 7-25 5-16 4-36 11-23 5-12 3-19 3h-6l-2-2 9-7 14-5 22-6 30-6 14-4 16-3 9-3 16-4 23-6 13-2 14-4 24-6 15-3 16-2 11-3 30-5z" fill="#F0E8F1"/>
<path transform="translate(938,351)" d="m0 0h7l9 3 9 7 6 8 2 5v15l-3 9-10 11-8 4-3 1h-15l-11-4-8-8-4-10-1-5v-11l2-7 9-10 7-5z" fill="#EDEDF0"/>
<path transform="translate(1317,95)" d="m0 0 16 2 32 2 21 4 25 2 21 6 14 2 40 11 11 4 13 4 14 6 3 4h-8v2l5 2-1 2-12-2-57-11-48-8-50-7-17-2 1-5 8-1 18 2h11l2-2-1-2-10-4-22-3h-11l-17-4-3-2z" fill="#F0E8F1"/>
<path transform="translate(930,325)" d="m0 0h20l12 3 9 5 10 9 8 9 5 10 3 14v18l-3 11-5 10-8 10-10 9-10 5-10 3-13 1-16-3-10-4-10-7-8-7-8-12-4-13-1-6v-19l5-15 7-11 9-8 14-8zm9 8-13 2-14 6-10 9-8 11-4 11-1 14 3 14 7 14 5 6 10 7 12 5 4 1h17l12-4 10-6 7-6 9-14 4-13-1-20-5-12-8-10-9-8-10-5-11-2z" fill="#E71329"/>
<path transform="translate(939,341)" d="m0 0 13 2 11 6 9 8 6 10 2 7v14l-3 11-3 6-11 12-12 6-5 1h-13l-14-5-8-6-8-9-4-11v-21l4-11 9-10 10-6 10-3zm-1 10-12 3-10 8-6 7-2 7v11l4 13 7 8 6 4 7 2h15l9-4 8-7 5-7 2-7v-15l-4-8-7-8-10-6-5-1z" fill="#E71329"/>
<path transform="translate(866,362)" d="m0 0 2 3 1 20 1 6v13l7 1 5 12 7 10 7 7 10 7 11 5 7 2 8 1h13l16-3 16-8 12-11 8-11 5-12 2-9h3l2 1v3h3l2-3-1 9-5 13-6 10-11 12-8 7-16 8-13 3-6 1h-19l-16-4-16-8-11-9-7-7-9-14-3-6-4-20v-21l1-7z" fill="#E71429"/>
<path transform="translate(1253,72)" d="m0 0 5 1 18 1 8 1h10l20 2 2 1 24 2 20 2 13 2 2 1 21 2 23 3 16 3 17 2 23 5 16 2 9 3 19 3 12 2 12 3 11 2 23 6 9 1 7 3 17 3 11 4 16 3 5 2 13 3 12 3v2l3-1 10 3 11 3 7 3 13 3 6 3 13 4 7 4 8 4v2l4 2 5 6-4-1-11-7-18-8-37-11-48-13-64-16-49-11-55-11-48-8-57-8-63-7-45-4-16-1v-1z" fill="#E71329"/>
<path transform="translate(794,357)" d="m0 0 5 1 3 3v14l-5 17-6 11-7 9-8 8-4 2h-5l-4-4-1-3v-9l4-15 8-16 9-11 9-6z" fill="#EDEDF0"/>
<path transform="translate(1282,359)" d="m0 0h7l2 3v16l-5 17-7 13-9 10-8 5h-5l-4-4-1-5 1-13 6-16 8-13 7-8z" fill="#EDEDF0"/>
<path transform="translate(659,167)" d="m0 0h7l7 2v1l-63 8-56 9-38 7-45 9-57 13-35 9-15 6-2-1 5-5 9-5 10-3h3l1-2 2 1 1-2 11-3 24-6 18-3 4-1 11-2 7-2 16-3 31-6 16-3 26-4 29-4 8-1 7-2 18-2h8l8-2h5l5-1z" fill="#E61229"/>
<path transform="translate(324,516)" d="m0 0 15 4 15 5 10 2 25 9 19 5 7 3 9 2 8 3 17 4 8 3 24 6 7 3 22 5 10 3 25 5 14 3 24 5v1l-18-1-50-10-57-13-59-15-18-5v-2l-9-2-14-4-10-4-8-2-5-5-9-3-2-2z" fill="#F0E8F1"/>
<path transform="translate(24,56)" d="m0 0h2l2 9 1 51v49l1 19 3 13v11l3 10 6 1 2 4h-20l-1-1-1-48v-114z" fill="#E31229"/>
<path transform="translate(930,325)" d="m0 0h20l12 3 9 5 10 9 8 9 5 10 3 14v18l-3 11-4 8h-2l-2-4-1-7 3-11-1-20-5-12-8-10-8-7-10-5-11-2h-13l-5-5-1-2z" fill="#E71329"/>
<path transform="translate(868,585)" d="m0 0h187l19 1h78l-4 2-40 1h-170l-65-2-5-1z" fill="#E71829"/>
<path transform="translate(1701,249)" d="m0 0 2 1 3 17 1 9 1 31v55l-1 36-1 11-1 12-2 1-1-48v-115z" fill="#E71229"/>
<path transform="translate(1628,515)" d="m0 0 4 1-4 2-56 14-53 12-51 10-7-1 4-3 10-2 36-8 23-4 10-3 12-2 10-3 24-5 17-4 8-1 5-2z" fill="#E61229"/>
<path transform="translate(1522,354)" d="m0 0h7l1 1-1 9-7 12-9 10-5 4-4 2-5-1-1-6 4-10 7-10 8-8z" fill="#EDEDF0"/>
<path transform="translate(936,316)" d="m0 0h12l16 3 14 7 2 3-5-2-3-1v3h2l5 7 3 2v2h2v2l4 2 3 3v2l-3-1-2-3-4-1-8-8-10-6-8-3-6-1h-23l1-3-1-2 6-3z" fill="#F0E8F1"/>
<path transform="translate(1605,169)" d="m0 0 5 1 4-1 56 15 10 3-4 1-5-1 1 3h-6l-3-1-11-3-12-2-10-4-4-2-14-3-7-4z" fill="#E51229"/>
<path transform="translate(992,360)" d="m0 0 2 1 3 14v18l-3 11-4 8h-2l-2-4-1-7 3-11 1-17 2-4z" fill="#D6152A"/>
<path transform="translate(196,220)" d="m0 0h74l-1 3-29 1h-56l-73-1v-1l62-1z" fill="#E71229"/>
<path transform="translate(879,343)" d="m0 0 2 1 1 5-7 14-2 10v16l3 16h-4l-2-1-2-22-1-20 4-12z" fill="#D5142A"/>
<path transform="translate(1768,482)" d="m0 0 2 1-1 7-6 10-11 11-9 4-6 1 10-10 10-11 4-4z" fill="#F0E8F1"/>
<path transform="translate(951,338)" d="m0 0 9 2 3 2h6l9 9 3 5-5 1-2-1v-2h-2l-1-2h-3l1 2-4-2-9-6-7-3-16-1 3-2z" fill="#F0E8F1"/>
<path transform="translate(1097,99)" d="m0 0 57 1 19 1 7 1v1l-16 1h-25l-38-1v-1l5-1-9-1z" fill="#F0E9F1"/>
<path transform="translate(1772,203)" d="m0 0 5 5 4 8 5 2v2h13l6 1v1l-6 1h-23l-4-16z" fill="#E61229"/>
<path transform="translate(901,402)" d="m0 0h2l6 8 8 7 9 4-1 2h-9l-6-3-7-6-3-5z" fill="#F0E8F1"/>
<path transform="translate(1012,378)" d="m0 0 2 2v16l-2 4-3-1v-3l-4-2v-9l2-3v2h2v-2h3l-1-3z" fill="#D5192B"/>
<path transform="translate(1387,112)" d="m0 0 19 1 13 4-2 2-5 1-11-1-10-2-5-3z" fill="#EDEEF0"/>
<path transform="translate(1152,585)" d="m0 0m-45 1h45l-4 2-40 1h-22v-1l20-1z" fill="#EE4E2C"/>
<path transform="translate(1142,67)" d="m0 0h24l5 2 1 2-36-1v-1l6-1z" fill="#E71329"/>
<path transform="translate(1280,108)" d="m0 0 18 1 9 1 4 2-1 2-18-1-12-1-1-3z" fill="#EFEAF1"/>
<path transform="translate(894,353)" d="m0 0 1 3-1 7-3 9-5-1v-8h2l2-5 1-2h2z" fill="#D5142A"/>
<path transform="translate(928,326)" d="m0 0h17v3l-6 2-5 1-2 2-5-5-1-2z" fill="#D4142A"/>
<path transform="translate(722,112)" d="m0 0 7 1 3 2-19 2-13-1 3-2z" fill="#F0E9F1"/>
<path transform="translate(265,220)" d="m0 0h5l-1 3h-34v-1l7-1z" fill="#E41229"/>
<path transform="translate(1699,188)" d="m0 0 7 1 2 2 5 2-1 2-5 1-10-3 2-3z" fill="#F0E8F1"/>
<path transform="translate(39,29)" d="m0 0 2 1-5 5-3 7-2 3h-2l-1 3-1-2 1-5 7-8z" fill="#E41529"/>
<path transform="translate(1162,101)" d="m0 0h11l7 1v1l-16 1h-25v-1h23z" fill="#F1E8F2"/>
<path transform="translate(1699,247)" d="m0 0h2l2 12v12l-2 1z" fill="#D9142A"/>
<path transform="translate(893,373)" d="m0 0h2v16l-3 1v-15z" fill="#F1E8F2"/>
<path transform="translate(631,594)" d="m0 0 16 2 8 2v1l-20-1v-2h-5z" fill="#F0E8F1"/>
<path transform="translate(1266,578)" d="m0 0h25v1l-26 2z" fill="#EA2C2A"/>
<path transform="translate(1280,108)" d="m0 0 18 1 1 2-10 1h-9l-1-3z" fill="#F1E8F2"/>
<path transform="translate(870,349)" d="m0 0 2 1-4 12-3 1 1-6z" fill="#ED482B"/>
</svg>
