<?xml version="1.0" encoding="utf-8"?>
<!-- Generator: Adobe Illustrator 27.5.0, SVG Export Plug-In . SVG Version: 6.00 Build 0)  -->
<svg version="1.1" id="Capa_1" xmlns="http://www.w3.org/2000/svg" xmlns:xlink="http://www.w3.org/1999/xlink" x="0px" y="0px"
	 viewBox="0 0 2122 2122" style="enable-background:new 0 0 2122 2122;" xml:space="preserve">
<path style="fill:#404249;" d="M846.432,520.759l213.968-45.618l211.567,53.557c2.547-11.422,3.703-20.694,4.224-26.488
	l-212.427-53.774c-1.812-8.689-4.076-22.387-4.049-36.437c-0.016-10.254,1.218-20.602,4.194-29.03
	c1.48-4.223,3.364-7.962,5.654-11.133c2.3-3.175,4.976-5.803,8.301-7.975c13.312-8.698,31.68-20.795,47.203-37.678
	c7.756-8.456,14.828-18.177,20.007-29.39c5.179-11.194,8.396-23.921,8.385-37.802c0.013-19.69-6.418-41.302-20.905-64.496
	c-12.031-19.349-27.643-32.874-44.592-41.212c-16.953-8.371-35.05-11.649-52.43-11.648c-17.976,0.009-35.264,3.466-50.466,8.698
	c-15.214,5.266-28.31,12.223-38.18,19.996c-12.597,9.939-20.204,22.835-24.456,35.417c-4.279,12.625-5.442,25.067-5.453,35.488
	c0.013,15.509,2.63,26.651,2.776,27.318c1.691,7.181,8.882,11.631,16.063,9.941c7.179-1.69,11.628-8.878,9.943-16.057
	c0,0-0.002-0.002-0.002-0.003c0-0.001,0-0.003,0-0.004c-0.134-0.553-2.076-9.547-2.066-21.195
	c-0.01-8.362,1.009-18.042,4.031-26.889c3.047-8.891,7.86-16.817,15.732-23.06c6.785-5.396,17.632-11.347,30.317-15.696
	c12.697-4.384,27.262-7.25,41.76-7.241c14.058,0.001,27.98,2.65,40.599,8.886c12.624,6.267,24.136,16.028,33.754,31.395
	c12.463,20.029,16.845,36.517,16.858,50.36c-0.011,9.802-2.19,18.48-5.927,26.608c-5.588,12.156-14.927,23.018-25.511,32.37
	c-10.568,9.362-22.224,17.133-32.021,23.505c-6.224,4.047-11.351,9.129-15.384,14.726c-6.063,8.414-9.725,17.879-11.932,27.397
	c-2.201,9.534-2.964,19.198-2.969,28.402c0.006,14.128,1.821,27.205,3.618,36.884c0.253,1.361,0.505,2.634,0.754,3.853
	l-192.667,42.872C844.706,495.607,844.304,505.471,846.432,520.759z"/>
<path style="fill:#E23B53;" d="M1568.955,553.936c-45.83-24.999-292.337-58.329-292.337-58.329s-0.046,2.385-0.426,6.602
	c-0.521,5.794-1.677,15.066-4.224,26.488c-12.09,54.218-55.524,156.619-211.305,162.728
	c-171.96-8.545-207.146-119.753-214.23-170.667c-2.128-15.288-1.726-25.151-1.726-25.151s-7.04,0.952-18.93,2.651
	c-58.572,8.365-235.31,34.898-273.406,55.678c-45.831,24.998-360.766,304.277-360.766,304.277
	c16.736,37.815,43.135,77.807,72.523,115.971c6.313-4.661,12.834-9.066,19.702-13.32c2.076-1.285,4.18-2.517,6.275-3.767
	c-40.466-49.946-71.564-91.267-71.591-91.304l0.001,0c-1.961-2.604-1.438-6.305,1.166-8.264c2.603-1.961,6.303-1.439,8.264,1.165
	c0.003,0.005,1.325,1.761,3.798,5.013c2.474,3.252,6.088,7.987,10.651,13.913c9.125,11.853,22.043,28.472,37.196,47.521
	c6.557,8.242,13.593,16.995,20.864,25.958c23.095-12.998,47.218-24.138,71.725-34.204c52.904-21.73,108.661-46.17,166.385-51.241
	c-2.872-77.108-5.427-161.373-5.428-217.276c0.005-24.002,0.456-42.705,1.612-53.846c0.405-3.755,0.831-6.601,1.575-9.028
	c0.973-3.111,4.283-4.843,7.393-3.87c3.111,0.973,4.844,4.284,3.871,7.394c-0.3,0.905-0.76,3.381-1.098,6.731
	c-0.353,3.375-0.649,7.723-0.879,12.877c-0.463,10.314-0.672,23.863-0.672,39.742c-0.002,111.244,10.203,336.535,12.754,391.051
	c0.364,7.792,0.571,12.086,0.573,12.098l0.001,0c0.157,3.256-2.355,6.024-5.613,6.181c-0.248,0.012-0.465-0.089-0.706-0.107
	c-1.295,2.817-2.584,5.637-3.881,8.454l4.305-3.828l-3.475,125.693c1.978-0.788,3.977-1.489,5.966-2.236
	c8.415,2.883,18.351,0.933,23.231-7.69c24.716-6.998,50.259-10.38,76.883-7.838c54.891,5.242,108.377,30.469,152.479,62.618
	c40.802,29.741,74.896,67.971,107.312,106.372c33.29,39.44,66.499,78.525,101.343,116.601
	c33.831,36.966,70.757,74.83,117.003,95.976c46.705,21.357,99.074,23.46,146.544,3.09c88.9-38.149,120.668-130.922,159.792-211.202
	c18.759-38.49,40.314-79.64,74.978-106.294c17.845-13.721,37.861-21.004,58.708-23.913l-4.18-151.177l6,5.334v-0.001l-0.64-0.569
	c-2.006-8.526-3.81-17.075-5.461-25.629c-0.156,6.767-0.249,10.59-0.249,10.594h0.001c-0.08,3.259-2.787,5.837-6.046,5.757
	c-3.259-0.08-5.837-2.786-5.756-6.045c0-0.009,0.072-2.961,0.198-8.427c0.127-5.466,0.308-13.434,0.525-23.442
	c0.359-16.594,0.819-38.85,1.295-64.548c-0.739-18.823-0.421-37.677,0.965-56.395c0.895-57.184,1.644-122.13,1.644-179.426
	c0.001-53.404-0.657-100.216-2.43-127.604c-0.582-9.1-1.314-16.098-2.091-20.112c-0.616-3.201,1.48-6.295,4.681-6.91
	c3.201-0.615,6.294,1.48,6.91,4.681c0.957,5.013,1.671,12.221,2.281,21.579c0.603,9.339,1.075,20.754,1.438,33.822
	c0.726,26.131,1.015,58.864,1.015,94.543c0,49.106-0.548,103.789-1.268,154.398c48.402,16.412,90.898,51.327,130.397,82.013
	c22.967,17.841,46.871,34.448,69.545,52.641c69.23-84.259,107.867-151.35,113.913-162.133c0.571-1.02,0.842-1.514,0.842-1.515h0.001
	c1.56-2.862,5.145-3.916,8.007-2.355c2.861,1.56,3.916,5.146,2.355,8.008c-0.136,0.235-39.544,72.449-115.944,165.434
	c8.228,6.789,16.416,13.623,24.595,20.465c48.117-54.395,97.839-118.973,124.041-178.175
	C1929.72,858.213,1614.785,578.935,1568.955,553.936z"/>
<path style="fill:#CD2E4C;" d="M1592.054,1897.67l-18.92-684.264c-20.848,2.909-40.863,10.193-58.708,23.913
	c-34.664,26.653-56.219,67.803-74.978,106.294c-39.124,80.281-70.892,173.054-159.792,211.202
	c-47.47,20.37-99.839,18.267-146.544-3.09c-46.247-21.146-83.173-59.01-117.003-95.976
	c-34.844-38.075-68.053-77.161-101.343-116.601c-32.416-38.401-66.51-76.631-107.312-106.372
	c-44.102-32.149-97.588-57.376-152.479-62.618c-26.624-2.542-52.167,0.84-76.883,7.838c-4.881,8.623-14.816,10.572-23.231,7.69
	c-1.989,0.747-3.988,1.448-5.966,2.236h-0.002l-20.604,745.194l-0.919,33.208v0.001h1066.583v-0.001L1592.054,1897.67z"/>
<path style="fill:#CD2E4C;" d="M546.471,1052.098c0-0.031-4.219-87.325-7.911-186.444c-57.724,5.071-113.481,29.511-166.385,51.241
	c-24.507,10.066-48.63,21.206-71.725,34.204c26.329,32.462,56.441,68.348,84.43,98.733c23.778,25.835,46.089,47.69,62.636,59.703
	c2.636,1.918,3.218,5.609,1.3,8.245c-1.917,2.636-5.609,3.218-8.245,1.301c-17.827-12.986-40.304-35.137-64.374-61.252
	c-24.04-26.101-49.551-56.117-72.904-84.556c-4.486-5.464-8.89-10.868-13.191-16.176c-2.095,1.25-4.2,2.482-6.275,3.767
	c-6.867,4.254-13.388,8.659-19.702,13.32c-0.016,0.011-0.031,0.022-0.046,0.033c2.019,2.621,4.059,5.229,6.104,7.831
	c0.748,0.95,1.493,1.9,2.244,2.848c2.083,2.631,4.171,5.256,6.275,7.864c0.204,0.254,0.412,0.506,0.617,0.76
	c4.648,5.752,9.341,11.443,14.056,17.059c0.2,0.238,0.399,0.479,0.599,0.716c2.316,2.755,4.638,5.488,6.962,8.205
	c0.413,0.484,0.827,0.965,1.241,1.447c7.242,8.441,14.5,16.687,21.689,24.679c0.166,0.183,0.33,0.367,0.494,0.549
	c9.917,11.013,19.699,21.544,29.123,31.454c0.145,0.153,0.29,0.305,0.434,0.458c4.053,4.258,8.02,8.376,11.92,12.392
	c5.183,5.337,10.233,10.477,15.072,15.34c0.074,0.074,0.147,0.147,0.221,0.221c6.229,6.255,12.129,12.089,17.626,17.457
	c0.228,0.222,0.457,0.446,0.683,0.667c1.765,1.722,3.493,3.401,5.168,5.022c0.067,0.065,0.132,0.126,0.199,0.191
	c3.486,3.371,6.775,6.523,9.829,9.43c0.02,0.018,0.039,0.037,0.058,0.055c1.363,1.297,2.662,2.525,3.931,3.724
	c0.43,0.407,0.848,0.8,1.267,1.195c1.163,1.096,2.309,2.176,3.384,3.182c0.055,0.051,0.102,0.095,0.157,0.147
	c2.164,2.027,4.105,3.829,5.88,5.472c0.488,0.452,0.977,0.903,1.433,1.326c0.689,0.636,1.346,1.239,1.964,1.806
	c0.527,0.485,0.999,0.916,1.472,1.349c0.429,0.392,0.889,0.814,1.272,1.163c0.813,0.74,1.496,1.36,2.091,1.899
	c0.24,0.217,0.426,0.384,0.63,0.568c0.452,0.409,0.814,0.733,1.081,0.973c0.051,0.045,0.118,0.106,0.162,0.145
	c0.274,0.246,0.46,0.412,0.46,0.412l108.187-96.165c1.297-2.817,2.587-5.637,3.881-8.454
	C549.018,1057.382,546.616,1055.106,546.471,1052.098z"/>
<path style="fill:#CD2E4C;" d="M1559.786,898.858c-1.386,18.718-1.704,37.572-0.965,56.395c0.098-5.298,0.197-10.69,0.295-16.267
	C1559.343,926.223,1559.568,912.762,1559.786,898.858z"/>
<path style="fill:#CD2E4C;" d="M1677.225,1128.959c-2.34,2.271-6.077,2.216-8.347-0.123c-2.271-2.339-2.217-6.076,0.123-8.347
	c39.596-38.445,73.915-76.72,102.907-112.005c-22.674-18.193-46.578-34.8-69.545-52.641
	c-39.499-30.686-81.995-65.601-130.397-82.013c-1.079,75.908-2.538,142.535-3.113,167.534c1.651,8.554,3.455,17.103,5.461,25.629
	l89.369,79.441l17.761,15.788c0,0,0.197-0.177,0.508-0.454c0.016-0.014,0.026-0.023,0.042-0.038
	c0.295-0.264,0.708-0.636,1.246-1.122c0.203-0.184,0.428-0.386,0.664-0.601c0.531-0.48,1.122-1.015,1.816-1.647
	c0.363-0.331,0.776-0.709,1.183-1.081c0.433-0.395,0.892-0.815,1.371-1.255c0.883-0.81,1.842-1.693,2.881-2.652
	c0.403-0.372,0.806-0.745,1.231-1.139c1.358-1.257,2.833-2.63,4.413-4.105c0.257-0.24,0.497-0.464,0.759-0.709
	c2.987-2.795,6.334-5.951,10-9.443c0.063-0.061,0.129-0.123,0.193-0.185c2.418-2.304,4.972-4.752,7.651-7.337
	c0.057-0.055,0.113-0.109,0.169-0.164c4.851-4.684,10.11-9.818,15.691-15.344c5.514-5.461,11.344-11.305,17.423-17.495
	c0.025-0.025,0.049-0.049,0.073-0.074c8.722-8.883,17.949-18.471,27.464-28.625c0.146-0.157,0.295-0.316,0.443-0.473
	c3.454-3.69,6.949-7.459,10.468-11.292c0.533-0.58,1.066-1.161,1.6-1.745c3.115-3.402,6.25-6.861,9.397-10.364
	c0.719-0.799,1.435-1.594,2.155-2.399c1.801-2.013,3.603-4.036,5.41-6.078c-0.005-0.004-0.01-0.008-0.015-0.012
	c-8.179-6.842-16.368-13.676-24.595-20.465C1751.839,1051.518,1717.194,1090.144,1677.225,1128.959z"/>
<path style="fill:#B62543;" d="M1060.662,767.938c61.042,0.015,109.028-15.297,146.343-38.389
	c56.007-34.652,87.83-86.434,105.681-129.338c17.854-42.94,21.825-77.177,21.872-77.539c0.374-3.238-1.946-6.166-5.184-6.541
	c-3.239-0.375-6.167,1.946-6.541,5.184l-0.001,0l-0.016,0.128c-0.365,3.15-8.193,62.397-44.786,120.231
	c-18.29,28.932-43.693,57.502-78.905,78.858c-35.223,21.348-80.302,35.588-138.464,35.602
	c-101.358-0.059-167.129-34.267-208.07-79.662c-40.923-45.407-56.947-102.6-56.931-148.521c0-1.952,0.028-3.876,0.088-5.771
	c0.102-3.258-2.456-5.982-5.713-6.085c-3.258-0.103-5.983,2.455-6.085,5.712c-0.066,2.033-0.094,4.082-0.094,6.143
	c0.016,48.553,16.771,108.402,59.962,156.419C886.993,732.399,956.674,767.997,1060.662,767.938z"/>
<path style="fill:#B62543;" d="M1669.001,1120.49c-2.34,2.271-2.395,6.008-0.123,8.347c2.271,2.339,6.007,2.394,8.347,0.123
	c39.97-38.815,74.614-77.441,103.859-113.035c76.4-92.985,115.807-165.199,115.944-165.434c1.561-2.862,0.506-6.447-2.355-8.008
	c-2.863-1.561-6.448-0.506-8.007,2.355h-0.001c0,0.002-0.27,0.495-0.842,1.515c-6.046,10.782-44.683,77.873-113.913,162.133
	C1742.916,1043.769,1708.597,1082.045,1669.001,1120.49z"/>
<path style="fill:#B62543;" d="M1573.235,719.432c0-35.679-0.289-68.413-1.015-94.543c-0.363-13.068-0.836-24.483-1.438-33.822
	c-0.611-9.358-1.324-16.567-2.281-21.579c-0.616-3.201-3.709-5.296-6.91-4.681c-3.201,0.615-5.297,3.709-4.681,6.91
	c0.777,4.014,1.509,11.011,2.091,20.112c1.774,27.388,2.431,74.2,2.43,127.604c0,57.297-0.749,122.242-1.644,179.426
	c-0.218,13.904-0.443,27.365-0.67,40.128c-0.098,5.578-0.197,10.969-0.295,16.267c-0.476,25.698-0.935,47.955-1.295,64.548
	c-0.217,10.008-0.398,17.976-0.525,23.442c-0.127,5.466-0.198,8.418-0.198,8.427c-0.08,3.259,2.497,5.965,5.756,6.045
	c3.259,0.079,5.966-2.498,6.046-5.757h-0.001c0-0.003,0.092-3.827,0.249-10.594c0.575-24.999,2.034-91.626,3.113-167.534
	C1572.687,823.221,1573.235,768.537,1573.235,719.432z"/>
<path style="fill:#B62543;" d="M551.945,1057.602c0.242,0.018,0.458,0.119,0.706,0.107c3.257-0.157,5.77-2.925,5.613-6.181l-0.001,0
	c-0.002-0.012-0.209-4.306-0.573-12.098c-2.551-54.516-12.756-279.807-12.754-391.051c0-15.879,0.208-29.427,0.672-39.742
	c0.23-5.154,0.526-9.502,0.879-12.877c0.338-3.349,0.798-5.825,1.098-6.731c0.973-3.111-0.76-6.421-3.871-7.394
	c-3.111-0.973-6.42,0.759-7.393,3.87c-0.744,2.427-1.17,5.273-1.575,9.028c-1.156,11.141-1.607,29.844-1.612,53.846
	c0.001,55.903,2.555,140.168,5.428,217.276c3.692,99.119,7.911,186.413,7.911,186.444
	C546.616,1055.106,549.018,1057.382,551.945,1057.602z"/>
<path style="fill:#B62543;" d="M376.197,1057.83c24.069,26.115,46.547,48.266,64.374,61.252c2.636,1.918,6.328,1.336,8.245-1.301
	c1.918-2.636,1.336-6.328-1.3-8.245c-16.547-12.012-38.858-33.868-62.636-59.703c-27.989-30.386-58.101-66.272-84.43-98.733
	c-7.271-8.963-14.307-17.716-20.864-25.958c-15.153-19.048-28.07-35.667-37.196-47.521c-4.563-5.926-8.177-10.662-10.651-13.913
	c-2.472-3.251-3.794-5.008-3.798-5.013c-1.961-2.604-5.662-3.126-8.264-1.165c-2.604,1.96-3.127,5.66-1.166,8.264l-0.001,0
	c0.027,0.036,31.125,41.358,71.591,91.304c4.301,5.308,8.705,10.711,13.191,16.176
	C326.646,1001.713,352.157,1031.729,376.197,1057.83z"/>
<path style="fill:#B62543;" d="M546.465,1924.661c0,3.259,2.642,5.901,5.903,5.901h1010.338c3.259,0,5.901-2.642,5.901-5.901
	c0-3.26-2.642-5.903-5.901-5.903H552.367C549.107,1918.758,546.465,1921.401,546.465,1924.661z"/>
</svg>
